<svg xmlns="http://www.w3.org/2000/svg" xmlns:xlink="http://www.w3.org/1999/xlink" width="286" height="291" viewBox="0 0 286 291">
  <defs>
    <clipPath id="clip-path">
      <rect id="Rectangle_2" data-name="Rectangle 2" width="286" height="291" fill="#fff"/>
    </clipPath>
  </defs>
  <g id="Group_1" data-name="Group 1" clip-path="url(#clip-path)">
    <path id="Path_127" data-name="Path 127" d="M254.49,222.184a183.432,183.432,0,0,1-19.4,43.58c-.19.312-.383.617-.578.928l-25.736-8.881c.111-.3.233-.635.362-1,7.761-21.625,54.445-153.431,48.907-180.637C258.568,78.405,275.692,152.279,254.49,222.184Z" fill="#e6e6e6"/>
    <path id="Path_128" data-name="Path 128" d="M240.054,267.477c-.309.271-.627.539-.948.8L219.8,261.615c.226-.243.489-.53.793-.854,4.953-5.382,19.667-21.507,33.9-38.577,15.293-18.344,30.031-37.775,31.51-46.138C285.726,177.953,277.069,235.973,240.054,267.477Z" fill="#e6e6e6"/>
    <path id="Path_129" data-name="Path 129" d="M35.56,291c19.639,0,35.56-1.775,35.56-3.965S55.2,283.07,35.56,283.07,0,284.845,0,287.035,15.921,291,35.56,291Z" fill="#e6e6e6"/>
    <path id="Path_130" data-name="Path 130" d="M59.555,202.42a4.221,4.221,0,0,1-1.876-.647,4.8,4.8,0,0,1-1.463-1.471,5.507,5.507,0,0,1-.782-2.026,5.791,5.791,0,0,1,.043-2.209l3.187-14.8H64.5v16.018a5.713,5.713,0,0,1-.385,2.068,5.2,5.2,0,0,1-1.089,1.721,4.5,4.5,0,0,1-1.611,1.084A4.11,4.11,0,0,1,59.555,202.42Z" fill="#a0616a"/>
    <path id="Path_131" data-name="Path 131" d="M54.91,105.013a87.471,87.471,0,0,1-17.518,1.879,109.88,109.88,0,0,1-16.684-1.252s.834-35.386,16.684-34.759C54.379,71.552,54.91,105.013,54.91,105.013Z" fill="#2f2e41"/>
    <path id="Path_132" data-name="Path 132" d="M37.392,77.456c2.764,0,5.005-2.524,5.005-5.637s-2.241-5.637-5.005-5.637-5.005,2.524-5.005,5.637S34.627,77.456,37.392,77.456Z" fill="#2f2e41"/>
    <path id="Path_133" data-name="Path 133" d="M47.4,273.8l6.951.939,4.032-61.063-12.235,4.071Z" fill="#a0616a"/>
    <path id="Path_134" data-name="Path 134" d="M24.462,270.511,17.649,273.8l-4.31-60.594,12.235,4.071Z" fill="#a0616a"/>
    <path id="Path_135" data-name="Path 135" d="M37.278,101.23c5.587,0,10.116-5.1,10.116-11.393S42.865,78.444,37.278,78.444s-10.116,5.1-10.116,11.393S31.691,101.23,37.278,101.23Z" fill="#a0616a"/>
    <path id="Path_136" data-name="Path 136" d="M46.568,138.833H30.162V111.407c4.149-3.068,2.685-8.54,0-14.535l14.6-.47c-2.187,7.373-1.425,12.894,4.727,15.031Z" fill="#a0616a"/>
    <path id="Path_137" data-name="Path 137" d="M62.278,222.6c-8.155-2.938-14.215.516-18.908,8.142l-5.283-23.173L30.3,226.67c-6.73-8.312-15.074-11.591-24.47-11.586,1.163-25.756,4.978-45.9,15.015-62.629.892-1.487,1.221-6.456,2.224-7.829L17.079,123.47a11.769,11.769,0,0,1,1.755-4.922,10.116,10.116,0,0,1,3.6-3.416l8.976-4.952,7.508,14.092,6.674-15.344,11.249,4.141a4.841,4.841,0,0,1,2.348,1.9,5.824,5.824,0,0,1,.94,3.081l-8.976,38.785C49.43,173.842,54.711,197.187,62.278,222.6Z" fill="#2f2e41"/>
    <path id="Path_138" data-name="Path 138" d="M65.337,183.456l-8.62-1.252-4.449-36.012,1.112-34.446,2.7.576a9.447,9.447,0,0,1,5.523,3.6,11.646,11.646,0,0,1,2.306,6.7Z" fill="#2f2e41"/>
    <path id="Path_139" data-name="Path 139" d="M5.7,202.678a4.094,4.094,0,0,0,1.962.022,4.354,4.354,0,0,0,1.79-.9,5.033,5.033,0,0,0,1.289-1.665,5.653,5.653,0,0,0,.552-2.12l.933-15.2-5.566-1.986L2.364,196.1a5.776,5.776,0,0,0-.188,2.1,5.619,5.619,0,0,0,.577,2.011A5.01,5.01,0,0,0,4,201.792,4.376,4.376,0,0,0,5.7,202.678Z" fill="#a0616a"/>
    <path id="Path_140" data-name="Path 140" d="M12.505,184.4l-6.674-1.879,9.1-58.655a10.538,10.538,0,0,1,2.01-4.784,8.863,8.863,0,0,1,3.9-2.948l2.224,25.052Z" fill="#2f2e41"/>
    <path id="Path_141" data-name="Path 141" d="M28.986,87.164H45.223l.589-3.693a7.427,7.427,0,0,0-.109-2.887,6.932,6.932,0,0,0-1.192-2.559,6,6,0,0,0-2.047-1.743,5.32,5.32,0,0,0-2.511-.594l-6.083.089a5.352,5.352,0,0,0-2.567.707,6.1,6.1,0,0,0-2.032,1.9A7.04,7.04,0,0,0,28.184,81.1a7.429,7.429,0,0,0,.08,2.975Z" fill="#2f2e41"/>
    <path id="Path_142" data-name="Path 142" d="M21.943,288.656a5,5,0,0,1-3.27-1.249,6.136,6.136,0,0,1-1.921-3.231l-.48-2.008a4.463,4.463,0,0,1-.1-1.461l.913-9.516c1.742-2.432,4.275-3.018,7.877-1.109l2.226,11.2a6.8,6.8,0,0,1-.009,2.688,6.4,6.4,0,0,1-1.041,2.419,5.529,5.529,0,0,1-1.868,1.672A4.88,4.88,0,0,1,21.943,288.656Z" fill="#2f2e41"/>
    <path id="Path_143" data-name="Path 143" d="M51.974,288.656a5,5,0,0,1-3.27-1.249,6.136,6.136,0,0,1-1.921-3.231l-.48-2.008a4.46,4.46,0,0,1-.1-1.461l.914-9.516c1.742-2.432,4.275-3.018,7.877-1.109l2.226,11.2a6.8,6.8,0,0,1-.009,2.688,6.4,6.4,0,0,1-1.041,2.419,5.528,5.528,0,0,1-1.868,1.672A4.88,4.88,0,0,1,51.974,288.656Z" fill="#2f2e41"/>
    <path id="Path_144" data-name="Path 144" d="M38.226,140.712a2.838,2.838,0,1,0-2.5-2.818A2.675,2.675,0,0,0,38.226,140.712Z" fill="#e6e6e6"/>
    <path id="Path_145" data-name="Path 145" d="M38.226,152.611a2.838,2.838,0,1,0-2.5-2.818A2.674,2.674,0,0,0,38.226,152.611Z" fill="#e6e6e6"/>
    <path id="Path_146" data-name="Path 146" d="M38.226,164.511a2.838,2.838,0,1,0-2.5-2.818A2.675,2.675,0,0,0,38.226,164.511Z" fill="#e6e6e6"/>
    <path id="Path_147" data-name="Path 147" d="M242.437,68.573h-1.409V25.138A26.83,26.83,0,0,0,234.49,7.363,21.132,21.132,0,0,0,218.706,0H136.993a21.134,21.134,0,0,0-15.784,7.363,26.835,26.835,0,0,0-6.538,17.775V263.426a26.834,26.834,0,0,0,6.538,17.775,21.135,21.135,0,0,0,15.784,7.363h81.713A21.135,21.135,0,0,0,234.49,281.2a26.834,26.834,0,0,0,6.538-17.775V99.491h1.408Z" fill="#3f3d56"/>
    <path id="Path_148" data-name="Path 148" d="M219.607,6.539H208.941a9.953,9.953,0,0,1,.546,4.279,9.655,9.655,0,0,1-1.306,4.066,8.338,8.338,0,0,1-2.849,2.9,7.222,7.222,0,0,1-3.724,1.048H154.8a7.223,7.223,0,0,1-3.724-1.048,8.329,8.329,0,0,1-2.849-2.9,9.653,9.653,0,0,1-1.306-4.065,9.951,9.951,0,0,1,.546-4.279H137.5a15.784,15.784,0,0,0-11.788,5.5,20.041,20.041,0,0,0-4.882,13.275V263.251a20.042,20.042,0,0,0,4.882,13.275,15.785,15.785,0,0,0,11.788,5.5H219.6a15.787,15.787,0,0,0,11.788-5.5,20.042,20.042,0,0,0,4.882-13.275V25.313a20.041,20.041,0,0,0-4.882-13.275,15.785,15.785,0,0,0-11.788-5.5Z" fill="#fff"/>
    <path id="Path_149" data-name="Path 149" d="M178.694,260.8c5.056,0,9.154-4.616,9.154-10.309s-4.1-10.309-9.154-10.309-9.154,4.615-9.154,10.309S173.638,260.8,178.694,260.8Z" fill="#e6e6e6"/>
    <path id="Path_150" data-name="Path 150" d="M229.161,131.028H127.941v22.506h101.22Z" fill="#e6e6e6"/>
    <path id="Path_151" data-name="Path 151" d="M130.1,151.1H227V133.46H130.1Z" fill="#fff"/>
    <path id="Path_152" data-name="Path 152" d="M138.582,135.413a5.506,5.506,0,0,1,3.317,1.133,6.606,6.606,0,0,1,2.2,3.017,7.515,7.515,0,0,1,.34,3.884,7.017,7.017,0,0,1-1.634,3.442,5.8,5.8,0,0,1-3.056,1.84,5.353,5.353,0,0,1-3.449-.383,6.182,6.182,0,0,1-2.679-2.476,7.337,7.337,0,0,1-1.006-3.735,7.458,7.458,0,0,1,.454-2.572,6.834,6.834,0,0,1,1.294-2.181,5.971,5.971,0,0,1,1.937-1.458A5.388,5.388,0,0,1,138.582,135.413Z" fill="#6c63ff"/>
    <path id="Path_153" data-name="Path 153" d="M211.772,139.505H152.857v1.461h58.915Z" fill="#e6e6e6"/>
    <path id="Path_154" data-name="Path 154" d="M211.772,143.3H152.857v1.462h58.915Z" fill="#e6e6e6"/>
    <path id="Path_155" data-name="Path 155" d="M229.161,163.145H127.941v22.506h101.22Z" fill="#e6e6e6"/>
    <path id="Path_156" data-name="Path 156" d="M130.1,183.221H227V165.577H130.1Z" fill="#fff"/>
    <path id="Path_157" data-name="Path 157" d="M138.582,180.975c3.3,0,5.97-3.01,5.97-6.723s-2.673-6.723-5.97-6.723-5.969,3.01-5.969,6.723S135.285,180.975,138.582,180.975Z" fill="#6c63ff"/>
    <path id="Path_158" data-name="Path 158" d="M211.772,171.621H152.857v1.462h58.915Z" fill="#e6e6e6"/>
    <path id="Path_159" data-name="Path 159" d="M211.772,175.421H152.857v1.461h58.915Z" fill="#e6e6e6"/>
    <path id="Path_160" data-name="Path 160" d="M229.161,195.261H127.941v22.506h101.22Z" fill="#e6e6e6"/>
    <path id="Path_161" data-name="Path 161" d="M130.1,215.337H227V197.693H130.1Z" fill="#fff"/>
    <path id="Path_162" data-name="Path 162" d="M138.582,213.091c3.3,0,5.97-3.009,5.97-6.722s-2.673-6.723-5.97-6.723-5.969,3.01-5.969,6.723S135.285,213.091,138.582,213.091Z" fill="#6c63ff"/>
    <path id="Path_163" data-name="Path 163" d="M211.772,203.738H152.857V205.2h58.915Z" fill="#e6e6e6"/>
    <path id="Path_164" data-name="Path 164" d="M211.772,207.537H152.857V209h58.915Z" fill="#e6e6e6"/>
    <path id="Path_165" data-name="Path 165" d="M178.551,108.609c15.556,0,28.167-14.2,28.167-31.72s-12.611-31.72-28.167-31.72-28.166,14.2-28.166,31.72S163,108.609,178.551,108.609Z" fill="#6c63ff"/>
    <path id="Path_166" data-name="Path 166" d="M189.834,63.578H167.269a3.565,3.565,0,0,0-2.658,1.242,4.526,4.526,0,0,0-1.1,2.993V85.965a4.526,4.526,0,0,0,1.1,2.993,3.565,3.565,0,0,0,2.658,1.242h22.565a3.565,3.565,0,0,0,2.658-1.242,4.525,4.525,0,0,0,1.1-2.993V67.813a4.525,4.525,0,0,0-1.1-2.993A3.565,3.565,0,0,0,189.834,63.578Zm0,2.42a1.433,1.433,0,0,1,.4.059L178.554,76.549,166.943,66.035a1.43,1.43,0,0,1,.326-.037Zm0,21.782H167.269a1.528,1.528,0,0,1-1.139-.532,1.944,1.944,0,0,1-.473-1.283V67.976l12.221,11.066a.982.982,0,0,0,1.343,0l12.225-10.982v17.9a1.944,1.944,0,0,1-.473,1.283A1.528,1.528,0,0,1,189.834,87.78Z" fill="#fff"/>
  </g>
</svg>
