<svg xmlns="http://www.w3.org/2000/svg" width="293" height="206.922" viewBox="0 0 293 206.922">
  <g id="Data_Analysis" transform="translate(0 0)">
    <path id="Path_189" data-name="Path 189" d="M234.357,608.059,234,607.4c4.8-2.594,10.765-5.822,13.883-11.119,3.073-5.222,3.142-12.313.18-18.506-2.521-5.271-7.152-9.993-13.392-13.656-1.231-.723-2.523-1.407-3.772-2.07a41.337,41.337,0,0,1-8.719-5.6c-3.547-3.234-6.23-8.662-4.23-13.5a8.971,8.971,0,0,1,7.776-5.441l.042.751a8.221,8.221,0,0,0-7.125,4.982c-1.859,4.493.691,9.591,4.044,12.649a40.78,40.78,0,0,0,8.564,5.5c1.257.666,2.556,1.355,3.8,2.086,6.37,3.739,11.1,8.573,13.689,13.98,3.069,6.416,2.988,13.778-.21,19.212C245.307,602.138,239.236,605.422,234.357,608.059Z" transform="translate(-214.696 -401.137)" fill="#f1f1f1"/>
    <ellipse id="Ellipse_18" data-name="Ellipse 18" cx="6.581" cy="3.196" rx="6.581" ry="3.196" transform="translate(9.215 133.939)" fill="#f1f1f1"/>
    <ellipse id="Ellipse_19" data-name="Ellipse 19" cx="6.581" cy="3.196" rx="6.581" ry="3.196" transform="translate(14.48 154.998)" fill="#f1f1f1"/>
    <ellipse id="Ellipse_20" data-name="Ellipse 20" cx="6.581" cy="3.196" rx="6.581" ry="3.196" transform="translate(2.446 158.383)" fill="#f1f1f1"/>
    <ellipse id="Ellipse_21" data-name="Ellipse 21" cx="6.581" cy="3.196" rx="6.581" ry="3.196" transform="translate(21.249 176.057)" fill="#f1f1f1"/>
    <ellipse id="Ellipse_22" data-name="Ellipse 22" cx="6.581" cy="3.196" rx="6.581" ry="3.196" transform="translate(34.41 176.057)" fill="#f1f1f1"/>
    <path id="Path_190" data-name="Path 190" d="M770.5,349.37H663.382a9.587,9.587,0,0,1-9.576-9.576V184.455a9.587,9.587,0,0,1,9.576-9.576H770.5a9.587,9.587,0,0,1,9.576,9.576V339.794A9.587,9.587,0,0,1,770.5,349.37Z" transform="translate(-487.072 -174.88)" fill="#e6e6e6"/>
    <path id="Path_191" data-name="Path 191" d="M781.362,353.4H673.871a2.955,2.955,0,0,1-2.952-2.952V194.078a2.955,2.955,0,0,1,2.952-2.952H781.362a2.955,2.955,0,0,1,2.952,2.952V350.446A2.955,2.955,0,0,1,781.362,353.4Z" transform="translate(-497.75 -185.017)" fill="#fff"/>
    <circle id="Ellipse_23" data-name="Ellipse 23" cx="0.815" cy="0.815" r="0.815" transform="translate(228.645 2.118)" fill="#fff"/>
    <path id="Path_192" data-name="Path 192" d="M792.678,395.12H706.026a.271.271,0,0,1-.271-.271V353.317a.271.271,0,0,1,.542,0v41.261h86.381a.271.271,0,1,1,0,.542Z" transform="translate(-519.485 -286.045)" fill="#3f3d56"/>
    <path id="Path_193" data-name="Path 193" d="M741.3,436.3h-7.881a.806.806,0,0,1-.8-.8V424.63a.806.806,0,0,1,.8-.8H741.3a.806.806,0,0,1,.805.8v10.865a.806.806,0,0,1-.805.8Z" transform="translate(-536.241 -330.208)" fill="#6c63ff"/>
    <path id="Path_194" data-name="Path 194" d="M779.514,419.2h-7.881a.806.806,0,0,1-.805-.8V397.228a.806.806,0,0,1,.8-.8h7.881a.806.806,0,0,1,.8.8V418.4A.806.806,0,0,1,779.514,419.2Z" transform="translate(-560.087 -313.111)" fill="#6c63ff"/>
    <path id="Path_195" data-name="Path 195" d="M817.733,436.3h-7.881a.806.806,0,0,1-.8-.8V424.63a.806.806,0,0,1,.8-.8h7.881a.806.806,0,0,1,.8.8v10.865A.806.806,0,0,1,817.733,436.3Z" transform="translate(-583.934 -330.208)" fill="#6c63ff"/>
    <path id="Path_196" data-name="Path 196" d="M855.953,412.453h-7.881a.788.788,0,0,1-.805-.768v-25.31a.788.788,0,0,1,.8-.768h7.881a.788.788,0,0,1,.8.768v25.31A.788.788,0,0,1,855.953,412.453Z" transform="translate(-607.78 -306.361)" fill="#6c63ff"/>
    <path id="Path_197" data-name="Path 197" d="M894.172,400.305H886.29a.806.806,0,0,1-.805-.8V366.941a.806.806,0,0,1,.805-.8h7.881a.806.806,0,0,1,.805.8V399.5A.806.806,0,0,1,894.172,400.305Z" transform="translate(-631.627 -294.213)" fill="#6c63ff"/>
    <circle id="Ellipse_24" data-name="Ellipse 24" cx="1.627" cy="1.627" r="1.627" transform="translate(199.487 87.109)" fill="#3f3d56"/>
    <circle id="Ellipse_25" data-name="Ellipse 25" cx="1.627" cy="1.627" r="1.627" transform="translate(213.859 76.534)" fill="#3f3d56"/>
    <circle id="Ellipse_26" data-name="Ellipse 26" cx="1.627" cy="1.627" r="1.627" transform="translate(228.232 87.109)" fill="#3f3d56"/>
    <circle id="Ellipse_27" data-name="Ellipse 27" cx="1.627" cy="1.627" r="1.627" transform="translate(242.604 71.381)" fill="#3f3d56"/>
    <circle id="Ellipse_28" data-name="Ellipse 28" cx="1.627" cy="1.627" r="1.627" transform="translate(256.977 65.415)" fill="#3f3d56"/>
    <path id="Path_198" data-name="Path 198" d="M563.305,200.209,548.9,189.418l-14.21,10.643-.325-.434L548.9,188.74l14.338,10.74,14.248-15.592.058-.023,14.372-5.791.2.5L577.8,184.344Z" transform="translate(-333.412 -111.108)" fill="#3f3d56"/>
    <path id="Path_199" data-name="Path 199" d="M436.756,396.014a3.751,3.751,0,0,0-2.883,1.348l-16.851-.527-.66-2.841-8.721,4.256,1.128,7.78,25.681-3.288a3.759,3.759,0,1,0,2.3-6.728Z" transform="translate(-333.48 -311.594)" fill="#9f616a"/>
    <path id="Path_200" data-name="Path 200" d="M191.626,507.58h4.61L198.43,489.8h-6.8Z" transform="translate(-119.563 -305.605)" fill="#9f616a"/>
    <path id="Path_201" data-name="Path 201" d="M398.933,707.961h9.08a5.786,5.786,0,0,1,5.786,5.786v.188H398.933Z" transform="translate(-328.046 -507.492)" fill="#2f2e41"/>
    <path id="Path_202" data-name="Path 202" d="M145.367,498.991l4.429,1.28,7.044-16.475-6.537-1.889Z" transform="translate(-90.701 -300.683)" fill="#9f616a"/>
    <path id="Path_203" data-name="Path 203" d="M351.154,697.5l8.723,2.521h0a5.786,5.786,0,0,1,3.952,7.165l-.052.181L349.5,703.242Z" transform="translate(-297.2 -500.966)" fill="#2f2e41"/>
    <path id="Path_204" data-name="Path 204" d="M386.154,506.627s-1.64,4.575.947,10.818l2,25.71.591,36.565h8.405l5.087-37.276,3.055-33.8Z" transform="translate(-319.753 -381.871)" fill="#2f2e41"/>
    <path id="Path_205" data-name="Path 205" d="M362.826,506.627s-1.64,4.575.947,10.818l2,25.71-9.939,34.825h8.405l15.616-35.535,3.055-33.8Z" transform="translate(-301.153 -381.871)" fill="#2f2e41"/>
    <circle id="Ellipse_29" data-name="Ellipse 29" cx="9.236" cy="9.236" r="9.236" transform="translate(77.094 47.314)" fill="#9f616a"/>
    <path id="Path_206" data-name="Path 206" d="M396.518,361.593l-1.872-8.7-9.531-5.411-1.933,2.706s-13.638,3.584-11.988,19.244.9,23.181.9,23.181l-3.761,17.3s1.158.2,27.727,4.84l1.128-37.606Z" transform="translate(-308.953 -282.575)" fill="#cbcbcb"/>
    <path id="Path_207" data-name="Path 207" d="M193.906,435.17l-8.655,17.483v5.011Z" transform="translate(-115.586 -271.521)" opacity="0.1"/>
    <path id="Path_208" data-name="Path 208" d="M411.158,305.805a2.983,2.983,0,0,0,5.388.459,3.029,3.029,0,0,0,.222-.541c.322-1.069.119-2.247.714-3.27a1.726,1.726,0,0,1,.6-.623c1.977-1.166,3.922,2.533,5.76,1.5,1.127-.635.886-2.478,1.889-3.294,1.324-1.078,3.236.528,4.933.344,1.888-.2,2.782-2.6,2.372-4.451a7.9,7.9,0,0,0-4.346-5.124,16.063,16.063,0,0,0-6.751-1.395,13.522,13.522,0,0,0-7.609,1.62,10.822,10.822,0,0,0-4.567,8.077C409.561,301.042,410.439,303.88,411.158,305.805Z" transform="translate(-334.787 -246.334)" fill="#2f2e41"/>
    <path id="Path_209" data-name="Path 209" d="M532.843,410.844h.041a27.409,27.409,0,0,0,.613-54.7.625.625,0,0,0-.473.164.619.619,0,0,0-.2.453l-.6,53.455a.627.627,0,0,0,.62.633Z" transform="translate(-411.211 -287.974)" fill="#3f3d56"/>
    <path id="Path_210" data-name="Path 210" d="M464.292,379.647a.807.807,0,0,1,.567.242l18.4,18.82a.8.8,0,0,1,.229.571l-.287,25.578a.8.8,0,0,1-.26.582.808.808,0,0,1-.607.211,27.588,27.588,0,0,1-18.657-45.731.808.808,0,0,1,.583-.273Z" transform="translate(-364.156 -302.643)" fill="#e6e6e6"/>
    <path id="Path_211" data-name="Path 211" d="M498.056,355.561a.81.81,0,0,1,.551.225.8.8,0,0,1,.247.589l-.259,23.078a.8.8,0,0,1-1.378.553l-16.058-16.422a.805.805,0,0,1,.013-1.139l.03-.028a27.646,27.646,0,0,1,16.8-6.855Z" transform="translate(-379.207 -287.615)" fill="#6c63ff"/>
    <path id="Path_212" data-name="Path 212" d="M411.756,424.014a3.751,3.751,0,0,0-2.883,1.348l-16.851-.527-.66-2.841-8.721,4.256,1.128,7.78,25.681-3.288a3.759,3.759,0,1,0,2.3-6.728Z" transform="translate(-317.882 -329.065)" fill="#9f616a"/>
    <path id="Path_213" data-name="Path 213" d="M378.086,393.089l-.468-23.178a6.138,6.138,0,1,1,12.275-.124v16.939Z" transform="translate(-314.746 -292.7)" fill="#cbcbcb"/>
    <path id="Path_214" data-name="Path 214" d="M354.086,723.632H210.808a.376.376,0,1,1,0-.752H354.086a.376.376,0,1,1,0,.752Z" transform="translate(-210.433 -516.801)" fill="#cbcbcb"/>
  </g>
</svg>
