<svg xmlns="http://www.w3.org/2000/svg" width="675.198" height="497.642" viewBox="0 0 675.198 497.642">
  <g id="Group_4" data-name="Group 4" transform="translate(0 -0.003)">
    <path id="Path_215" data-name="Path 215" d="M392.3,74.621c-43.285-1.5-84.514-15.506-123.88-30.814S190.056,11.532,147.811,3.417C120.636-1.8,89.558-2.525,67.664,12.053c-21.075,14.04-27.881,38.3-31.538,60.772-2.755,16.924-4.374,34.71,3.167,50.575,5.24,10.993,14.544,20.239,20.979,30.772,22.378,36.661,6.573,81.862-17.7,117.649C31.221,288.614,18,304.629,9.22,322.5s-12.841,38.348-5.163,56.577c7.619,18.073,25.76,31.645,45.412,41.19,39.921,19.391,86.965,24.944,132.837,28.085,101.55,6.931,203.639,3.938,305.452.946,37.68-1.119,75.522-2.251,112.593-8.085,20.579-3.238,41.827-8.378,56.766-20.8,18.971-15.763,23.674-42.454,10.959-62.24-21.32-33.147-80.279-41.383-95.181-76.96-8.2-19.581.221-41.395,12.142-59.557,25.574-38.966,68.441-73.142,70.7-117.679C657.289,73.4,636.68,42.765,604.82,28.295c-33.4-15.171-79.711-13.262-104.353,11.849C475.108,66,430.521,75.949,392.3,74.621Z" transform="translate(0 0)" fill="#6c63ff" opacity="0.1"/>
    <path id="Path_216" data-name="Path 216" d="M356.506,394.989l-116.518-1.5.34-2.992,5.635-49.372H348.29l7.529,49.372.574,3.741Z" transform="translate(40.362 57.371)" fill="#d0d2d5"/>
    <path id="Path_217" data-name="Path 217" d="M356.393,387.134H298.246l-58.258-.749.34-2.992H355.819Z" transform="translate(40.362 64.479)" opacity="0.1"/>
    <path id="Path_218" data-name="Path 218" d="M377.975,384.033H223.364v3.741H377.975Z" transform="translate(37.566 64.587)" fill="#d0d2d5"/>
    <path id="Path_219" data-name="Path 219" d="M546.941,88.688a9.726,9.726,0,0,0-9.675-9.785H105.485a9.734,9.734,0,0,0-9.68,9.785v262.12H546.941Z" transform="translate(16.113 13.27)" fill="#444053"/>
    <path id="Path_220" data-name="Path 220" d="M95.8,309.434v30.7a9.688,9.688,0,0,0,9.68,9.695H537.266a9.688,9.688,0,0,0,9.675-9.695v-30.7Z" transform="translate(16.113 52.041)" fill="#d0d2d5"/>
    <path id="Path_221" data-name="Path 221" d="M527.82,92.991H111.789V328.63H527.82Z" transform="translate(18.801 15.639)" fill="#6c63ff" opacity="0.1"/>
    <path id="Path_222" data-name="Path 222" d="M292.264,336.939a10.088,10.088,0,0,0,7.935-3.854,10.444,10.444,0,0,0,.783-1.155l-5.534-.91,5.975.048a10.092,10.092,0,0,0,.192-8.007l-8.025,4.189,7.4-5.446a10.09,10.09,0,1,0-8.73,15.135Z" transform="translate(47.462 53.278)" fill="#6c63ff"/>
    <path id="Path_223" data-name="Path 223" d="M299.45,344.013l46.482,46.751L338.8,344.013Z" transform="translate(50.362 57.856)" opacity="0.1"/>
    <path id="Path_224" data-name="Path 224" d="M393.767,129.384H123.8a1.554,1.554,0,0,0-1.553,1.556V291.8a1.554,1.554,0,0,0,1.553,1.555H393.767a1.554,1.554,0,0,0,1.554-1.555V130.94A1.554,1.554,0,0,0,393.767,129.384Z" transform="translate(20.56 21.76)" fill="#fff"/>
    <path id="Path_225" data-name="Path 225" d="M527.9,93.011H112.02v13.764H527.9Z" transform="translate(18.84 15.642)" fill="#fff"/>
    <path id="Path_226" data-name="Path 226" d="M125.038,95.061H114.02a.467.467,0,0,0-.466.467v7.445a.467.467,0,0,0,.466.467h11.018a.467.467,0,0,0,.466-.467V95.527A.467.467,0,0,0,125.038,95.061Z" transform="translate(19.098 15.987)" fill="#6c63ff"/>
    <path id="Path_227" data-name="Path 227" d="M360.426,95.061H235.639a.347.347,0,0,0-.347.347v7.683a.347.347,0,0,0,.347.348H360.426a.347.347,0,0,0,.347-.348V95.408A.347.347,0,0,0,360.426,95.061Z" transform="translate(39.572 15.987)" fill="#6c63ff" opacity="0.3"/>
    <path id="Path_228" data-name="Path 228" d="M340.207,99.987h-.3l-.113-.1a2.553,2.553,0,0,0,.6-1.628,2.473,2.473,0,1,0-2.468,2.5,2.548,2.548,0,0,0,1.625-.6l.114.1v.311l1.911,1.916.6-.6Zm-2.294,0a1.709,1.709,0,1,1,1.221-.5,1.712,1.712,0,0,1-1.221.5Z" transform="translate(56.415 16.112)" fill="#444053"/>
    <path id="Path_229" data-name="Path 229" d="M463.514,103.439a4.189,4.189,0,1,0-4.183-4.19A4.186,4.186,0,0,0,463.514,103.439Z" transform="translate(77.251 15.987)" fill="#6c63ff"/>
    <path id="Path_230" data-name="Path 230" d="M410.275,117.6H374.339a1.453,1.453,0,0,0-1.452,1.454v23.423a1.453,1.453,0,0,0,1.452,1.454h35.936a1.453,1.453,0,0,0,1.452-1.454V119.055A1.454,1.454,0,0,0,410.275,117.6Z" transform="translate(62.713 19.778)" fill="#fff"/>
    <path id="Path_231" data-name="Path 231" d="M464.658,117.6H415.194a.365.365,0,0,0-.364.366v3.459a.365.365,0,0,0,.364.364h49.463a.364.364,0,0,0,.365-.364v-3.459A.364.364,0,0,0,464.658,117.6Z" transform="translate(69.767 19.778)" fill="#fff"/>
    <path id="Path_232" data-name="Path 232" d="M464.658,125.286H415.194a.365.365,0,0,0-.364.364v3.459a.365.365,0,0,0,.364.366h49.463a.364.364,0,0,0,.365-.366V125.65A.364.364,0,0,0,464.658,125.286Z" transform="translate(69.767 21.07)" fill="#fff"/>
    <path id="Path_233" data-name="Path 233" d="M464.658,132.97H415.194a.365.365,0,0,0-.364.366v3.459a.365.365,0,0,0,.364.364h49.463a.364.364,0,0,0,.365-.364v-3.459A.364.364,0,0,0,464.658,132.97Z" transform="translate(69.767 22.363)" fill="#fff"/>
    <path id="Path_234" data-name="Path 234" d="M410.275,152.949H374.339a1.453,1.453,0,0,0-1.452,1.454v23.423a1.453,1.453,0,0,0,1.452,1.454h35.936a1.453,1.453,0,0,0,1.452-1.454V154.4A1.454,1.454,0,0,0,410.275,152.949Z" transform="translate(62.713 25.723)" fill="#fff"/>
    <path id="Path_235" data-name="Path 235" d="M464.658,152.949H415.194a.365.365,0,0,0-.364.366v3.459a.365.365,0,0,0,.364.364h49.463a.364.364,0,0,0,.365-.364v-3.459A.364.364,0,0,0,464.658,152.949Z" transform="translate(69.767 25.723)" fill="#fff"/>
    <path id="Path_236" data-name="Path 236" d="M464.658,160.634H415.194a.365.365,0,0,0-.364.364v3.459a.365.365,0,0,0,.364.366h49.463a.364.364,0,0,0,.365-.366V161A.364.364,0,0,0,464.658,160.634Z" transform="translate(69.767 27.015)" fill="#fff"/>
    <path id="Path_237" data-name="Path 237" d="M464.628,168.318h-49.4a.394.394,0,0,0-.395.395v3.4a.394.394,0,0,0,.395.395h49.4a.394.394,0,0,0,.394-.395v-3.4A.394.394,0,0,0,464.628,168.318Z" transform="translate(69.767 28.308)" fill="#fff"/>
    <path id="Path_238" data-name="Path 238" d="M410.275,188.3H374.339a1.453,1.453,0,0,0-1.452,1.454v23.423a1.453,1.453,0,0,0,1.452,1.454h35.936a1.453,1.453,0,0,0,1.452-1.454V189.751A1.454,1.454,0,0,0,410.275,188.3Z" transform="translate(62.713 31.668)" fill="#fff"/>
    <path id="Path_239" data-name="Path 239" d="M464.628,188.3h-49.4a.4.4,0,0,0-.395.395v3.4a.394.394,0,0,0,.395.395h49.4a.394.394,0,0,0,.394-.395v-3.4A.4.4,0,0,0,464.628,188.3Z" transform="translate(69.767 31.668)" fill="#fff"/>
    <path id="Path_240" data-name="Path 240" d="M464.628,195.982h-49.4a.394.394,0,0,0-.395.395v3.4a.4.4,0,0,0,.395.395h49.4a.4.4,0,0,0,.394-.395v-3.4A.394.394,0,0,0,464.628,195.982Z" transform="translate(69.767 32.96)" fill="#fff"/>
    <path id="Path_241" data-name="Path 241" d="M464.628,203.666h-49.4a.394.394,0,0,0-.395.395v3.4a.394.394,0,0,0,.395.395h49.4a.394.394,0,0,0,.394-.395v-3.4A.394.394,0,0,0,464.628,203.666Z" transform="translate(69.767 34.253)" fill="#fff"/>
    <path id="Path_242" data-name="Path 242" d="M410.275,223.645H374.339a1.453,1.453,0,0,0-1.452,1.454v23.423a1.453,1.453,0,0,0,1.452,1.454h35.936a1.453,1.453,0,0,0,1.452-1.454V225.1A1.454,1.454,0,0,0,410.275,223.645Z" transform="translate(62.713 37.613)" fill="#fff"/>
    <path id="Path_243" data-name="Path 243" d="M464.628,223.645h-49.4a.4.4,0,0,0-.395.4v3.4a.394.394,0,0,0,.395.395h49.4a.394.394,0,0,0,.394-.395v-3.4A.4.4,0,0,0,464.628,223.645Z" transform="translate(69.767 37.613)" fill="#fff"/>
    <path id="Path_244" data-name="Path 244" d="M464.628,231.33h-49.4a.394.394,0,0,0-.395.395v3.4a.4.4,0,0,0,.395.395h49.4a.4.4,0,0,0,.394-.395v-3.4A.394.394,0,0,0,464.628,231.33Z" transform="translate(69.767 38.905)" fill="#fff"/>
    <path id="Path_245" data-name="Path 245" d="M464.628,239.014h-49.4a.394.394,0,0,0-.395.395v3.4a.394.394,0,0,0,.395.395h49.4a.394.394,0,0,0,.394-.395v-3.4A.394.394,0,0,0,464.628,239.014Z" transform="translate(69.767 40.197)" fill="#fff"/>
    <path id="Path_246" data-name="Path 246" d="M410.275,258.993H374.339a1.453,1.453,0,0,0-1.452,1.454v23.423a1.453,1.453,0,0,0,1.452,1.454h35.936a1.453,1.453,0,0,0,1.452-1.454V260.447A1.454,1.454,0,0,0,410.275,258.993Z" transform="translate(62.713 43.558)" fill="#fff"/>
    <path id="Path_247" data-name="Path 247" d="M464.628,258.993h-49.4a.4.4,0,0,0-.395.4v3.4a.394.394,0,0,0,.395.395h49.4a.394.394,0,0,0,.394-.395v-3.4A.4.4,0,0,0,464.628,258.993Z" transform="translate(69.767 43.558)" fill="#fff"/>
    <path id="Path_248" data-name="Path 248" d="M464.628,266.678h-49.4a.394.394,0,0,0-.395.395v3.4a.4.4,0,0,0,.395.395h49.4a.4.4,0,0,0,.394-.395v-3.4A.394.394,0,0,0,464.628,266.678Z" transform="translate(69.767 44.85)" fill="#fff"/>
    <path id="Path_249" data-name="Path 249" d="M464.628,274.362h-49.4a.394.394,0,0,0-.395.395v3.4a.394.394,0,0,0,.395.395h49.4a.394.394,0,0,0,.394-.395v-3.4A.394.394,0,0,0,464.628,274.362Z" transform="translate(69.767 46.142)" fill="#fff"/>
    <path id="Path_250" data-name="Path 250" d="M217.412,166.581H155.968v3.19h61.444Z" transform="translate(26.231 28.015)" fill="#6c63ff" opacity="0.1"/>
    <path id="Path_251" data-name="Path 251" d="M166.559,152.145h-5.916v16.864h5.916Z" transform="translate(27.017 25.588)" fill="#6c63ff" opacity="0.1"/>
    <path id="Path_252" data-name="Path 252" d="M173.96,152.145h-5.916v16.864h5.916Z" transform="translate(28.262 25.588)" fill="#6c63ff" opacity="0.1"/>
    <path id="Path_253" data-name="Path 253" d="M181.362,152.145h-5.916v16.864h5.916Z" transform="translate(29.507 25.588)" fill="#6c63ff" opacity="0.1"/>
    <path id="Path_254" data-name="Path 254" d="M188.763,152.145h-5.916v16.864h5.916Z" transform="translate(30.752 25.588)" fill="#6c63ff" opacity="0.1"/>
    <path id="Path_255" data-name="Path 255" d="M196.165,152.145h-5.916v16.864h5.916Z" transform="translate(31.996 25.588)" fill="#6c63ff" opacity="0.1"/>
    <path id="Path_256" data-name="Path 256" d="M203.57,152.145h-5.915v16.864h5.915Z" transform="translate(33.242 25.588)" fill="#6c63ff" opacity="0.1"/>
    <path id="Path_257" data-name="Path 257" d="M166.559,154.876h-5.916V156.7h5.916Z" transform="translate(27.017 26.047)" fill="#6c63ff" opacity="0.1"/>
    <path id="Path_258" data-name="Path 258" d="M173.96,154.876h-5.916V156.7h5.916Z" transform="translate(28.262 26.047)" fill="#6c63ff" opacity="0.1"/>
    <path id="Path_259" data-name="Path 259" d="M181.362,154.876h-5.916V156.7h5.916Z" transform="translate(29.507 26.047)" fill="#6c63ff" opacity="0.1"/>
    <path id="Path_260" data-name="Path 260" d="M188.763,154.876h-5.916V156.7h5.916Z" transform="translate(30.752 26.047)" fill="#6c63ff" opacity="0.1"/>
    <path id="Path_261" data-name="Path 261" d="M196.165,154.876h-5.916V156.7h5.916Z" transform="translate(31.996 26.047)" fill="#6c63ff" opacity="0.1"/>
    <path id="Path_262" data-name="Path 262" d="M203.57,154.876h-5.915V156.7h5.915Z" transform="translate(33.242 26.047)" fill="#6c63ff" opacity="0.1"/>
    <path id="Path_263" data-name="Path 263" d="M166.559,161.9h-5.916v1.826h5.916Z" transform="translate(27.017 27.228)" fill="#6c63ff" opacity="0.1"/>
    <path id="Path_264" data-name="Path 264" d="M173.96,161.9h-5.916v1.826h5.916Z" transform="translate(28.262 27.228)" fill="#6c63ff" opacity="0.1"/>
    <path id="Path_265" data-name="Path 265" d="M181.362,161.9h-5.916v1.826h5.916Z" transform="translate(29.507 27.228)" fill="#6c63ff" opacity="0.1"/>
    <path id="Path_266" data-name="Path 266" d="M188.763,161.9h-5.916v1.826h5.916Z" transform="translate(30.752 27.228)" fill="#6c63ff" opacity="0.1"/>
    <path id="Path_267" data-name="Path 267" d="M196.165,161.9h-5.916v1.826h5.916Z" transform="translate(31.996 27.228)" fill="#6c63ff" opacity="0.1"/>
    <path id="Path_268" data-name="Path 268" d="M203.57,161.9h-5.915v1.826h5.915Z" transform="translate(33.242 27.228)" fill="#6c63ff" opacity="0.1"/>
    <path id="Path_269" data-name="Path 269" d="M332.731,173.6H271.287v3.189h61.444Z" transform="translate(45.626 29.197)" fill="#6c63ff" opacity="0.1"/>
    <path id="Path_270" data-name="Path 270" d="M281.878,159.169h-5.916v16.864h5.916Z" transform="translate(46.412 26.769)" fill="#6c63ff" opacity="0.1"/>
    <path id="Path_271" data-name="Path 271" d="M289.279,159.169h-5.916v16.864h5.916Z" transform="translate(47.657 26.769)" fill="#6c63ff" opacity="0.1"/>
    <path id="Path_272" data-name="Path 272" d="M296.68,159.169h-5.914v16.864h5.914Z" transform="translate(48.901 26.769)" fill="#6c63ff" opacity="0.1"/>
    <path id="Path_273" data-name="Path 273" d="M304.087,159.169h-5.916v16.864h5.916Z" transform="translate(50.147 26.769)" fill="#6c63ff" opacity="0.1"/>
    <path id="Path_274" data-name="Path 274" d="M311.489,159.169h-5.916v16.864h5.916Z" transform="translate(51.392 26.769)" fill="#6c63ff" opacity="0.1"/>
    <path id="Path_275" data-name="Path 275" d="M318.89,159.169h-5.916v16.864h5.916Z" transform="translate(52.637 26.769)" fill="#6c63ff" opacity="0.1"/>
    <path id="Path_276" data-name="Path 276" d="M281.878,161.9h-5.916v1.826h5.916Z" transform="translate(46.412 27.228)" fill="#6c63ff" opacity="0.1"/>
    <path id="Path_277" data-name="Path 277" d="M289.279,161.9h-5.916v1.826h5.916Z" transform="translate(47.657 27.228)" fill="#6c63ff" opacity="0.1"/>
    <path id="Path_278" data-name="Path 278" d="M296.68,161.9h-5.914v1.826h5.914Z" transform="translate(48.901 27.228)" fill="#6c63ff" opacity="0.1"/>
    <path id="Path_279" data-name="Path 279" d="M304.087,161.9h-5.916v1.826h5.916Z" transform="translate(50.147 27.228)" fill="#6c63ff" opacity="0.1"/>
    <path id="Path_280" data-name="Path 280" d="M311.489,161.9h-5.916v1.826h5.916Z" transform="translate(51.392 27.228)" fill="#6c63ff" opacity="0.1"/>
    <path id="Path_281" data-name="Path 281" d="M318.89,161.9h-5.916v1.826h5.916Z" transform="translate(52.637 27.228)" fill="#6c63ff" opacity="0.1"/>
    <path id="Path_282" data-name="Path 282" d="M281.878,168.923h-5.916v1.825h5.916Z" transform="translate(46.412 28.409)" fill="#6c63ff" opacity="0.1"/>
    <path id="Path_283" data-name="Path 283" d="M289.279,168.923h-5.916v1.825h5.916Z" transform="translate(47.657 28.409)" fill="#6c63ff" opacity="0.1"/>
    <path id="Path_284" data-name="Path 284" d="M296.68,168.923h-5.914v1.825h5.914Z" transform="translate(48.901 28.409)" fill="#6c63ff" opacity="0.1"/>
    <path id="Path_285" data-name="Path 285" d="M304.087,168.923h-5.916v1.825h5.916Z" transform="translate(50.147 28.409)" fill="#6c63ff" opacity="0.1"/>
    <path id="Path_286" data-name="Path 286" d="M311.489,168.923h-5.916v1.825h5.916Z" transform="translate(51.392 28.409)" fill="#6c63ff" opacity="0.1"/>
    <path id="Path_287" data-name="Path 287" d="M318.89,168.923h-5.916v1.825h5.916Z" transform="translate(52.637 28.409)" fill="#6c63ff" opacity="0.1"/>
    <path id="Path_288" data-name="Path 288" d="M332.731,193.5H271.287v3.19h61.444Z" transform="translate(45.626 32.543)" fill="#6c63ff" opacity="0.1"/>
    <path id="Path_289" data-name="Path 289" d="M281.878,179.066h-5.916V195.93h5.916Z" transform="translate(46.412 30.115)" fill="#6c63ff" opacity="0.1"/>
    <path id="Path_290" data-name="Path 290" d="M289.279,179.066h-5.916V195.93h5.916Z" transform="translate(47.657 30.115)" fill="#6c63ff" opacity="0.1"/>
    <path id="Path_291" data-name="Path 291" d="M296.68,179.066h-5.914V195.93h5.914Z" transform="translate(48.901 30.115)" fill="#6c63ff" opacity="0.1"/>
    <path id="Path_292" data-name="Path 292" d="M304.087,179.066h-5.916V195.93h5.916Z" transform="translate(50.147 30.115)" fill="#6c63ff" opacity="0.1"/>
    <path id="Path_293" data-name="Path 293" d="M311.489,179.066h-5.916V195.93h5.916Z" transform="translate(51.392 30.115)" fill="#6c63ff" opacity="0.1"/>
    <path id="Path_294" data-name="Path 294" d="M318.89,179.066h-5.916V195.93h5.916Z" transform="translate(52.637 30.115)" fill="#6c63ff" opacity="0.1"/>
    <path id="Path_295" data-name="Path 295" d="M281.878,181.8h-5.916v1.826h5.916Z" transform="translate(46.412 30.574)" fill="#6c63ff" opacity="0.1"/>
    <path id="Path_296" data-name="Path 296" d="M289.279,181.8h-5.916v1.826h5.916Z" transform="translate(47.657 30.574)" fill="#6c63ff" opacity="0.1"/>
    <path id="Path_297" data-name="Path 297" d="M296.68,181.8h-5.914v1.826h5.914Z" transform="translate(48.901 30.574)" fill="#6c63ff" opacity="0.1"/>
    <path id="Path_298" data-name="Path 298" d="M304.087,181.8h-5.916v1.826h5.916Z" transform="translate(50.147 30.574)" fill="#6c63ff" opacity="0.1"/>
    <path id="Path_299" data-name="Path 299" d="M311.489,181.8h-5.916v1.826h5.916Z" transform="translate(51.392 30.574)" fill="#6c63ff" opacity="0.1"/>
    <path id="Path_300" data-name="Path 300" d="M318.89,181.8h-5.916v1.826h5.916Z" transform="translate(52.637 30.574)" fill="#6c63ff" opacity="0.1"/>
    <path id="Path_301" data-name="Path 301" d="M281.878,188.82h-5.916v1.825h5.916Z" transform="translate(46.412 31.756)" fill="#6c63ff" opacity="0.1"/>
    <path id="Path_302" data-name="Path 302" d="M289.279,188.82h-5.916v1.825h5.916Z" transform="translate(47.657 31.756)" fill="#6c63ff" opacity="0.1"/>
    <path id="Path_303" data-name="Path 303" d="M296.68,188.82h-5.914v1.825h5.914Z" transform="translate(48.901 31.756)" fill="#6c63ff" opacity="0.1"/>
    <path id="Path_304" data-name="Path 304" d="M304.087,188.82h-5.916v1.825h5.916Z" transform="translate(50.147 31.756)" fill="#6c63ff" opacity="0.1"/>
    <path id="Path_305" data-name="Path 305" d="M311.489,188.82h-5.916v1.825h5.916Z" transform="translate(51.392 31.756)" fill="#6c63ff" opacity="0.1"/>
    <path id="Path_306" data-name="Path 306" d="M318.89,188.82h-5.916v1.825h5.916Z" transform="translate(52.637 31.756)" fill="#6c63ff" opacity="0.1"/>
    <path id="Path_307" data-name="Path 307" d="M188.733,201.235a16.819,16.819,0,0,1-1.256-1.849l8.85-1.454-9.56.072a16.22,16.22,0,0,1-.311-12.8l12.817,6.655-11.837-8.713a16.139,16.139,0,1,1,26.631,18.073,15.7,15.7,0,0,1,1.841,2.944l-11.484,5.985,12.243-4.111a16.171,16.171,0,0,1-2.6,15.147,16.131,16.131,0,1,1-25.334,0,16.176,16.176,0,0,1,0-19.97Z" transform="translate(31.159 29.43)" fill="#6c63ff" opacity="0.1"/>
    <path id="Path_308" data-name="Path 308" d="M217.522,206.036a16.107,16.107,0,0,1-3.454,9.97,16.131,16.131,0,1,1-25.334,0C186.564,213.272,217.522,204.223,217.522,206.036Z" transform="translate(31.159 34.611)" fill="#6c63ff" opacity="0.1"/>
    <path id="Path_309" data-name="Path 309" d="M202.154,241.264a1.515,1.515,0,0,1,.078.132h-5.474c.03-.042.048-.09.078-.132a5.317,5.317,0,0,1-.706-2.7,5.529,5.529,0,0,1,.329-1.9c.3.048.681.1,1.117.15a19.138,19.138,0,0,0,3.819,0c.366-.036.743-.084,1.128-.144a.062.062,0,0,0,0,.029,5.392,5.392,0,0,1,.324,1.874A5.317,5.317,0,0,1,202.154,241.264Z" transform="translate(32.986 39.802)" fill="#3f3d56" opacity="0.2"/>
    <path id="Path_310" data-name="Path 310" d="M190.659,249.317H160.186c-.067-.174-.126-.359-.18-.539a16.1,16.1,0,0,1,.353-10.557,16.173,16.173,0,0,1-5.885-19.085,15.338,15.338,0,0,1-1.739-1.395l8.02-4-9.119,2.9a16.175,16.175,0,0,1-4.063-12.13l14.227,2.572-13.874-4.829a16.135,16.135,0,1,1,30.766,9.4,16.358,16.358,0,0,1,2.647,2.3l-9.213,9.1,10.486-7.552A16.181,16.181,0,0,1,184.6,230.76a16.169,16.169,0,0,1,6.064,18.558Z" transform="translate(24.809 31.881)" fill="#6c63ff" opacity="0.1"/>
    <path id="Path_311" data-name="Path 311" d="M188.965,244.929H158.492c-.067-.174-.126-.359-.18-.539a16.1,16.1,0,0,1,.353-10.557c-2.868-1.987,24.039-19.79,24.57-18.055a16.106,16.106,0,0,1-.353,10.563,16.17,16.17,0,0,1,6.083,18.588Z" transform="translate(26.504 36.27)" fill="#6c63ff" opacity="0.1"/>
    <path id="Path_312" data-name="Path 312" d="M309.682,225.513a16.077,16.077,0,0,1-8.072,6.8,16.506,16.506,0,0,1,.065,3.472L288.762,235l12.614,2.741a16.172,16.172,0,0,1-1.924,4.883,15.88,15.88,0,0,1-4.3,4.728H277.571v.461H259.645c.035-.155.071-.3.113-.461a16.152,16.152,0,0,1,9.829-10.958,16.162,16.162,0,0,1,10.236-17.14,16.378,16.378,0,0,1-.131-2.231l8.335,3.3-8.246-4.853a16.169,16.169,0,0,1,6.328-11.12l7.6,12.316-5.695-13.56a16.15,16.15,0,0,1,21.672,22.406Z" transform="translate(43.668 33.819)" fill="#6c63ff" opacity="0.1"/>
    <path id="Path_313" data-name="Path 313" d="M299.452,237.689a15.879,15.879,0,0,1-4.3,4.728H277.571v.46H259.645c.035-.155.071-.3.113-.46a16.152,16.152,0,0,1,9.829-10.958c-.15-1.2,3.322-1.017,7.953-.239C286.617,232.745,300.068,236.66,299.452,237.689Z" transform="translate(43.668 38.782)" fill="#6c63ff" opacity="0.1"/>
    <path id="Path_314" data-name="Path 314" d="M229.08,199.909s2.211,11.969-2.724,15.877,4.182,27.331,19.228,24.6S266.761,218,266.761,218s-15.07-3.124-9.483-19Z" transform="translate(37.842 33.468)" fill="#ee8e9e"/>
    <path id="Path_315" data-name="Path 315" d="M229.08,199.909s2.211,11.969-2.724,15.877,4.182,27.331,19.228,24.6S266.761,218,266.761,218s-15.07-3.124-9.483-19Z" transform="translate(37.842 33.468)" opacity="0.1"/>
    <path id="Path_316" data-name="Path 316" d="M243.488,214.492a24.985,24.985,0,1,0-24.948-24.985A24.966,24.966,0,0,0,243.488,214.492Z" transform="translate(36.754 27.669)" fill="#ee8e9e"/>
    <path id="Path_317" data-name="Path 317" d="M286.85,229.143v16.983H204.474V229.914a10.459,10.459,0,0,1,6.376-9.634l2.36-1.006c5.975-2.549,13.236-5.715,15.608-7.032a3.91,3.91,0,0,0,.729-.472c1.3-1.3,1.04.389,1.04.389s-.036.322-.061.88c-.143,3.823.407,18.851,17.992,17.6,17.155-1.2,17.926-12.818,17.753-16.235q-.016-.475-.078-.946a22.093,22.093,0,0,1,3.472,1.138c3.585,1.328,8.879,3.459,10.3,4.464.443.312.98.635,1.565.964a10.355,10.355,0,0,1,1.853,1.322,10.483,10.483,0,0,1,3.472,7.8Z" transform="translate(34.389 35.533)" fill="#6c63ff"/>
    <path id="Path_318" data-name="Path 318" d="M266.162,214.594c-1.452,6.738-6.011,19.359-22.443,19.689-17.508.347-18.524-17.092-18.411-22.041a3.555,3.555,0,0,0,.736-.472c1.3-1.3,1.04.389,1.04.389s-2.206,19.911,17.926,18.479,17.657-17.175,17.657-17.175A24.373,24.373,0,0,1,266.162,214.594Z" transform="translate(37.892 35.533)" opacity="0.1"/>
    <path id="Path_319" data-name="Path 319" d="M214.86,192.856a4.269,4.269,0,0,1,4.5,1.646,8.176,8.176,0,0,1,1.159,4.285c1.082.227,1.692-1,1.792-1.927.4-3.777.431-7.625,1.7-11.275a13.453,13.453,0,0,1,8.282-8.576,9.609,9.609,0,0,1,4.523-.431c.9.151,1.75.467,2.647.6,3.106.514,6.482-.958,9.392.065a7.488,7.488,0,0,1,3.842,3.627,7.868,7.868,0,0,0,1.494,2.172c1.237,1.113,3.173,1.4,4.947,1.748s3.711.952,4.471,2.322c.681,1.238.179,2.669-.048,4.009a9.841,9.841,0,0,0,1.009,6.207c.328.6,1,1.322,1.793,1.125a1.573,1.573,0,0,0,.848-.688c2.037-2.861,1.984-6.584,4.541-9.163.855-.861,1.96-1.531,2.791-2.394a5.438,5.438,0,0,0,1.446-4.931c-.46-1.975-2.037-3.591-3.311-5.326a20.972,20.972,0,0,1-3.543-7.368,1.329,1.329,0,0,1,0-.963,2.566,2.566,0,0,1,.908-.743,3.437,3.437,0,0,0,1.16-4.387,7.31,7.31,0,0,0-4.1-3.273,26.751,26.751,0,0,0-5.6-1.2,3.044,3.044,0,0,1-3.113-1.537c-.173-.449-.173-.933-.347-1.383a3.165,3.165,0,0,0-2.39-1.675,6.969,6.969,0,0,0-3.2.228c-1.2.335-2.551.838-3.585.251-.544-.3-.842-.862-1.429-1.113-1.2-.5-2.425.515-3.28,1.353a8,8,0,0,1-2.958,1.993,4.4,4.4,0,0,1-3.669-.245,11.647,11.647,0,0,1-1.882-2.023,7.083,7.083,0,0,0-4.451-1.8,15.628,15.628,0,0,0-5.026.551,30.281,30.281,0,0,0-8.826,3.71,9.481,9.481,0,0,0-3.388,3.153,7.184,7.184,0,0,0-.759,3.25,11.734,11.734,0,0,0,4.093,9.737c-1.864.778-2.492,2.687-2.929,4.381a24.03,24.03,0,0,0-1.134,8.205,18.074,18.074,0,0,1,.311,4.266,9.191,9.191,0,0,0-.276,2.041,1.956,1.956,0,0,0,1.6,1.491Z" transform="translate(35.852 25.571)" fill="#454b69"/>
    <g id="Group_2" data-name="Group 2" transform="translate(249.062 186.632)" opacity="0.1">
      <path id="Path_320" data-name="Path 320" d="M268.367,176.115a5.849,5.849,0,0,1-1.076,1.592c-.831.874-1.936,1.55-2.791,2.394-2.557,2.562-2.5,6.308-4.541,9.168a1.533,1.533,0,0,1-.849.682c-.777.2-1.446-.5-1.792-1.125a10.3,10.3,0,0,1-.89-2.394c-.042.209-.084.419-.12.6a9.841,9.841,0,0,0,1.01,6.207c.328.6,1,1.322,1.792,1.125a1.571,1.571,0,0,0,.849-.688c2.037-2.861,1.984-6.583,4.541-9.162.855-.862,1.96-1.533,2.791-2.395a5.436,5.436,0,0,0,1.446-4.931A6.563,6.563,0,0,0,268.367,176.115Z" transform="translate(-205.978 -157.013)" opacity="0.1"/>
      <path id="Path_321" data-name="Path 321" d="M261.988,161.046a2.5,2.5,0,0,0-.908.743,1.325,1.325,0,0,0,0,.957,20.338,20.338,0,0,0,.9,2.729,3.437,3.437,0,0,0,1.16-4.387,4.229,4.229,0,0,0-.418-.7A3.431,3.431,0,0,1,261.988,161.046Z" transform="translate(-205.168 -159.658)" opacity="0.1"/>
      <path id="Path_322" data-name="Path 322" d="M217.322,166.7a11.1,11.1,0,0,1-3.913-6.936,9.4,9.4,0,0,0-.18,1.627,12.481,12.481,0,0,0,1.966,7.4A4.192,4.192,0,0,1,217.322,166.7Z" transform="translate(-213.204 -159.763)" opacity="0.1"/>
      <path id="Path_323" data-name="Path 323" d="M263.537,183.828c.227-1.347.729-2.777.048-4.01-.759-1.376-2.7-1.974-4.469-2.321s-3.711-.641-4.948-1.748a7.827,7.827,0,0,1-1.493-2.173,7.405,7.405,0,0,0-3.842-3.626c-2.911-1.023-6.287.443-9.393-.067-.9-.15-1.745-.46-2.647-.6a9.535,9.535,0,0,0-4.523.431,13.476,13.476,0,0,0-8.282,8.576c-1.266,3.645-1.3,7.493-1.7,11.274-.1.922-.711,2.155-1.793,1.927a8.246,8.246,0,0,0-1.159-4.291,4.27,4.27,0,0,0-4.5-1.64,2.185,2.185,0,0,1-1.26-.807,6.974,6.974,0,0,1,0,1.652,9.171,9.171,0,0,0-.276,2.04,1.956,1.956,0,0,0,1.561,1.538,4.268,4.268,0,0,1,4.5,1.646,8.168,8.168,0,0,1,1.159,4.285c1.082.227,1.691-1,1.793-1.927.4-3.776.43-7.624,1.7-11.274a13.445,13.445,0,0,1,8.281-8.576,9.581,9.581,0,0,1,4.523-.431c.9.15,1.751.466,2.647.6,3.107.515,6.483-.958,9.393.065A7.5,7.5,0,0,1,252.7,178a7.8,7.8,0,0,0,1.494,2.172c1.237,1.113,3.173,1.4,4.947,1.748s3.585.91,4.38,2.179A.514.514,0,0,1,263.537,183.828Z" transform="translate(-213.189 -158.178)" opacity="0.1"/>
      <path id="Path_324" data-name="Path 324" d="M213.569,180.606a11.361,11.361,0,0,0-.2-3.333,14.893,14.893,0,0,0-.114,3.5,6.514,6.514,0,0,0,.107.891C213.433,181.307,213.522,180.96,213.569,180.606Z" transform="translate(-213.205 -156.818)" opacity="0.1"/>
    </g>
    <path id="Path_325" data-name="Path 325" d="M188.484,263.38v-10.8a.307.307,0,0,1,.3-.3h1.225a.307.307,0,0,1,.3.3v4.5l4.971-4.614a.813.813,0,0,1,1.333.6v9.785a.813.813,0,0,1-1.333.6l-4.971-4.584v4.471a.307.307,0,0,1-.09.216.3.3,0,0,1-.215.089h-1.225a.307.307,0,0,1-.2-.069A.314.314,0,0,1,188.484,263.38Z" transform="translate(31.7 42.427)" fill="#444053"/>
    <path id="Path_326" data-name="Path 326" d="M292.481,252.575v10.8a.307.307,0,0,1-.311.306h-1.2a.307.307,0,0,1-.3-.306v-4.494l-4.972,4.608a.821.821,0,0,1-.854.116.82.82,0,0,1-.484-.715v-9.82a.82.82,0,0,1,.484-.715.815.815,0,0,1,.854.116l4.972,4.584v-4.464a.307.307,0,0,1,.09-.216.3.3,0,0,1,.215-.089h1.2a.3.3,0,0,1,.213.081A.3.3,0,0,1,292.481,252.575Z" transform="translate(47.824 42.429)" fill="#444053"/>
    <path id="Path_327" data-name="Path 327" d="M238.683,263.812h-2.431a1.195,1.195,0,0,1-1.2-1.2v-8.94a1.195,1.195,0,0,1,1.2-1.2h2.431a1.195,1.195,0,0,1,1.2,1.2v8.94a1.195,1.195,0,0,1-1.2,1.2Zm7.709-1.2v-8.94a1.2,1.2,0,0,0-1.2-1.2h-2.456a1.195,1.195,0,0,0-1.2,1.2v8.94a1.194,1.194,0,0,0,1.2,1.2h2.431a1.192,1.192,0,0,0,.465-.084,1.173,1.173,0,0,0,.4-.258,1.2,1.2,0,0,0,.359-.855Z" transform="translate(39.532 42.462)" fill="#444053"/>
    <path id="Path_328" data-name="Path 328" d="M321.922,240.069H178.515v1.6H321.922Z" transform="translate(30.023 40.375)" fill="#444053" opacity="0.6"/>
    <path id="Path_329" data-name="Path 329" d="M216.968,245.085a3.788,3.788,0,1,0-3.783-3.788A3.785,3.785,0,0,0,216.968,245.085Z" transform="translate(35.854 39.944)" fill="#444053"/>
    <path id="Path_330" data-name="Path 330" d="M222.8,240.069H178.515v1.6H222.8Z" transform="translate(30.023 40.375)" fill="#444053"/>
    <path id="Path_331" data-name="Path 331" d="M494.667,396.424c19.625,0,35.535-3.065,35.535-6.846s-15.909-6.847-35.535-6.847-35.535,3.065-35.535,6.847S475.041,396.424,494.667,396.424Z" transform="translate(77.218 64.368)" fill="#6c63ff"/>
    <path id="Path_332" data-name="Path 332" d="M489.639,392.305c2.284,0,4.135-2.427,4.135-5.422s-1.852-5.423-4.135-5.423-4.134,2.427-4.134,5.423S487.355,392.305,489.639,392.305Z" transform="translate(81.653 64.154)" fill="#3f3d56"/>
    <path id="Path_333" data-name="Path 333" d="M489.639,386.629c2.284,0,4.135-2.427,4.135-5.422s-1.852-5.423-4.135-5.423-4.134,2.427-4.134,5.423S487.355,386.629,489.639,386.629Z" transform="translate(81.653 63.2)" fill="#3f3d56"/>
    <path id="Path_334" data-name="Path 334" d="M489.639,380.958c2.284,0,4.135-2.427,4.135-5.422s-1.852-5.423-4.135-5.423-4.134,2.427-4.134,5.423S487.355,380.958,489.639,380.958Z" transform="translate(81.653 62.246)" fill="#3f3d56"/>
    <path id="Path_335" data-name="Path 335" d="M489.639,375.282c2.284,0,4.135-2.427,4.135-5.423s-1.852-5.422-4.135-5.422-4.134,2.427-4.134,5.422S487.355,375.282,489.639,375.282Z" transform="translate(81.653 61.291)" fill="#3f3d56"/>
    <path id="Path_336" data-name="Path 336" d="M489.639,369.606c2.284,0,4.135-2.427,4.135-5.423s-1.852-5.422-4.135-5.422-4.134,2.427-4.134,5.422S487.355,369.606,489.639,369.606Z" transform="translate(81.653 60.337)" fill="#3f3d56"/>
    <path id="Path_337" data-name="Path 337" d="M489.639,363.929c2.284,0,4.135-2.427,4.135-5.422s-1.852-5.422-4.135-5.422-4.134,2.427-4.134,5.422S487.355,363.929,489.639,363.929Z" transform="translate(81.653 59.382)" fill="#3f3d56"/>
    <path id="Path_338" data-name="Path 338" d="M489.639,358.253c2.284,0,4.135-2.427,4.135-5.422s-1.852-5.422-4.135-5.422-4.134,2.427-4.134,5.422S487.355,358.253,489.639,358.253Z" transform="translate(81.653 58.428)" fill="#3f3d56"/>
    <path id="Path_339" data-name="Path 339" d="M507.394,317.844a20.659,20.659,0,0,0,1.541-2.273l-10.875-1.8,11.759.09a19.944,19.944,0,0,0,.377-15.727l-15.763,8.2,14.544-10.706a19.828,19.828,0,1,0-32.732,22.214,20.353,20.353,0,0,0-2.259,3.591l14.114,7.343-15.046-5.057a19.886,19.886,0,0,0,3.191,18.636,19.811,19.811,0,1,0,31.155,0,19.884,19.884,0,0,0,0-24.536Z" transform="translate(79.382 48.052)" fill="#6c63ff"/>
    <path id="Path_340" data-name="Path 340" d="M472.006,323.763a19.768,19.768,0,0,0,4.237,12.268,19.811,19.811,0,1,0,31.155,0C510.051,332.662,472.006,321.538,472.006,323.763Z" transform="translate(79.383 54.402)" opacity="0.1"/>
    <path id="Path_341" data-name="Path 341" d="M156.853,429.619c32.671,0,59.156-5.627,59.156-12.567s-26.485-12.567-59.156-12.567S97.7,410.11,97.7,417.051,124.182,429.619,156.853,429.619Z" transform="translate(16.431 68.027)" fill="#6c63ff" opacity="0.1"/>
    <path id="Path_342" data-name="Path 342" d="M172.223,448.038a15.5,15.5,0,0,0-3.723-.5,11.515,11.515,0,0,1-6.848-3.328,12.571,12.571,0,0,1-2.737-4.189c.395.144.79.293,1.2.456-1.2-2.8.061-5.931,1.16-8.756q2.8-7.183,5.288-14.441c4.182-12.262,7.767-25.014,7.69-38.061,0-4.716-.867-9.175-1.034-13.885-.126-3.494.412-6.983.388-10.484,0-.491,0-.975-.036-1.466a9.3,9.3,0,0,0,3.149-7.577,18.17,18.17,0,0,0-.317-2.2,35.753,35.753,0,0,0-.836-3.746c-.395-1.3-.932-2.543-1.392-3.812-.89-2.46-1.494-5.021-2.252-7.523a2.59,2.59,0,0,1,.812.222,1.748,1.748,0,0,1-.382-.784,19.443,19.443,0,0,1-.717-4.889l.508-.228a12.733,12.733,0,0,0-.245-4.842c.287-2.566.735-5.152,1.01-7.708.1-.958.06-2.16-.819-2.394-.18-1.37-.251-2.759-.322-4.141q-.377-7.235-.748-14.464c-.251-4.842-.5-9.677-.6-14.524a42.436,42.436,0,0,0-.831-9.2,11.159,11.159,0,0,0-.424-4.189c-1.112-3.526-4.565-6.32-8.067-6.122a16.087,16.087,0,0,0-3.818-3.867c.7-1.568,1.535-3.183,2.223-4.452a14.506,14.506,0,0,0,9.7-13.943,15.235,15.235,0,0,0-1.642-6.937,7.56,7.56,0,0,0,.263-.807,6.644,6.644,0,0,0-.269-3.884,11.383,11.383,0,0,0-.6-1.389c-.155-.3-.322-.6-.5-.885l-.3-.46a8.465,8.465,0,0,0-.6-.814,19.654,19.654,0,0,0-1.362-1.64,13.457,13.457,0,0,0-1.96-1.748,8.633,8.633,0,0,0-3.227-1.489,9.807,9.807,0,0,0-2.049-.186c-.412,0-.831,0-1.243.036-.836.048-1.667.107-2.5.1a5.489,5.489,0,0,1-.831-.042,30.188,30.188,0,0,1-4.327-.9l-.716-.15c-.245-.048-.485-.09-.729-.119a13.663,13.663,0,0,0-1.978-.12h-.664a18.386,18.386,0,0,0-1.978.2l-.658.1a18.809,18.809,0,0,0-4.811,1.43c-.2.09-.4.192-.6.3l-.119.065c-.162.084-.324.174-.479.27l-.089.054-.508.324-.042.029c-4.744,3.2-7.546,9.252-8.258,15.261-.794,6.744.6,13.543,1.989,20.179l1.256,5.985c.054.27.113.533.167.8a13.163,13.163,0,0,0-3.938,5.469c-1.2,2.992-1.225,6.23-1.13,9.473,0,.659.036,1.318.1,1.975-.15,1.245-.28,2.5-.364,3.752-.376,5.8.328,11.64.144,17.457-.144,4.482-.819,8.976-.491,13.428a60.652,60.652,0,0,0,2.391,11.592l1.506,5.434a1.423,1.423,0,0,0,.376.748,1.13,1.13,0,0,0,.842.174,50.96,50.96,0,0,0-2.45,6.87,21.237,21.237,0,0,0-.884,4.417,27.026,27.026,0,0,0,1.069,8.127q1.435,5.984,2.856,12.016,1,4.219,2,8.433c1.314,5.541,2.635,11.119,2.88,16.822a36.574,36.574,0,0,1-.6,8.552,74.621,74.621,0,0,0-.741,25.631,125.734,125.734,0,0,0,4.834,21.191c.484-.257.973-.5,1.475-.717l-.209.389q-1.034,1.794-1.912,3.68a20.82,20.82,0,0,0-1.021,2.52,28.429,28.429,0,0,0-.993,7.462,3.67,3.67,0,0,0,.126,1.443,2.991,2.991,0,0,0,2.151,1.616,19.621,19.621,0,0,0,7.947.126,1.021,1.021,0,0,0,.054.173,2.981,2.981,0,0,0,2.152,1.616c3.693,1.054,7.589.06,11.394-.3s7.546-.1,11.21-.975a5.349,5.349,0,0,0,1.554-.6,5.1,5.1,0,0,0,1.96-2.723,3.52,3.52,0,0,0,.227-.891A3.033,3.033,0,0,0,172.223,448.038Zm-12.639-55.422a15.094,15.094,0,0,1-1.2,4.057,77.545,77.545,0,0,0-6.131,19.252,89.5,89.5,0,0,0-1.356,13.316c-.06,3.291.065,6.738-1.3,9.695l.5-.078c-.155.287-.3.6-.449.826l-.071.132a12.975,12.975,0,0,1-1.632-4.584c0-.054-.269-.1-.681-.12a124.059,124.059,0,0,1-1.745-28.659,13.282,13.282,0,0,1,.479-3.441c.3-.964.818-1.843,1.2-2.777a20.447,20.447,0,0,0,1.2-4.871,69.255,69.255,0,0,0,.752-12.878c-.144-4.064.794-8.1,1.6-12.149.382-1.921.735-3.848.926-5.774l.035-.389a58.028,58.028,0,0,1,7.339,19.078A27.342,27.342,0,0,1,159.585,392.616Zm-25.574-86.488.192.167a13.25,13.25,0,0,1,1.589,1.669,2.207,2.207,0,0,1,.5.922c.179.874-.544,1.616-1.135,2.257a9.955,9.955,0,0,0-.723.874q-.191-2.946-.407-5.889Z" transform="translate(20.869 35.579)" fill="#fff"/>
    <path id="Path_343" data-name="Path 343" d="M125.745,260.4l-.658,5.082c-.221,1.723-.442,3.44-.562,5.17-.4,5.757.341,11.538.15,17.307-.155,4.44-.86,8.875-.52,13.309a56.455,56.455,0,0,0,2.528,11.49l1.577,5.387a1.422,1.422,0,0,0,.395.742,1.387,1.387,0,0,0,1.009.162l7-.634c-.449-2.06-.944-4.189-1.2-6.3-.192-1.652-.3-3.315-.424-4.979-.37-5.183-.794-10.365-1.2-15.56l-.748-9.1a68.71,68.71,0,0,0-1.637-11.754A23.406,23.406,0,0,0,125.745,260.4Z" transform="translate(20.865 43.795)" fill="#6c63ff"/>
    <path id="Path_344" data-name="Path 344" d="M125.745,260.4l-.658,5.082c-.221,1.723-.442,3.44-.562,5.17-.4,5.757.341,11.538.15,17.307-.155,4.44-.86,8.875-.52,13.309a56.455,56.455,0,0,0,2.528,11.49l1.577,5.387a1.422,1.422,0,0,0,.395.742,1.387,1.387,0,0,0,1.009.162l7-.634c-.449-2.06-.944-4.189-1.2-6.3-.192-1.652-.3-3.315-.424-4.979-.37-5.183-.794-10.365-1.2-15.56l-.748-9.1a68.71,68.71,0,0,0-1.637-11.754A23.406,23.406,0,0,0,125.745,260.4Z" transform="translate(20.865 43.795)" opacity="0.1"/>
    <path id="Path_345" data-name="Path 345" d="M136.491,409.371a21.4,21.4,0,0,0-1.076,2.5,26.97,26.97,0,0,0-1.04,7.4,3.588,3.588,0,0,0,.132,1.43,3.112,3.112,0,0,0,2.264,1.6c3.878,1.047,7.966.065,11.951-.293s7.924-.1,11.772-.964a5.987,5.987,0,0,0,1.631-.569,5.089,5.089,0,0,0,2.062-2.693,3.575,3.575,0,0,0,.234-.885,3.058,3.058,0,0,0-2.259-2.884,17.021,17.021,0,0,0-3.908-.5,12.315,12.315,0,0,1-10.9-10.3c-.048-.287-6.478-.113-7.17.257a6.011,6.011,0,0,0-1.715,2.256Q137.41,407.5,136.491,409.371Z" transform="translate(22.596 67.789)" fill="#a26565"/>
    <path id="Path_346" data-name="Path 346" d="M136.491,409.371a21.4,21.4,0,0,0-1.076,2.5,26.97,26.97,0,0,0-1.04,7.4,3.588,3.588,0,0,0,.132,1.43,3.112,3.112,0,0,0,2.264,1.6c3.878,1.047,7.966.065,11.951-.293s7.924-.1,11.772-.964a5.987,5.987,0,0,0,1.631-.569,5.089,5.089,0,0,0,2.062-2.693,3.575,3.575,0,0,0,.234-.885,3.058,3.058,0,0,0-2.259-2.884,17.021,17.021,0,0,0-3.908-.5,12.315,12.315,0,0,1-10.9-10.3c-.048-.287-6.478-.113-7.17.257a6.011,6.011,0,0,0-1.715,2.256Q137.41,407.5,136.491,409.371Z" transform="translate(22.596 67.789)" opacity="0.1"/>
    <path id="Path_347" data-name="Path 347" d="M145.621,411a20.391,20.391,0,0,0-1.075,2.5,26.645,26.645,0,0,0-1.04,7.4,3.484,3.484,0,0,0,.131,1.43,3.117,3.117,0,0,0,2.259,1.6c3.877,1.041,7.971.06,11.951-.3s7.928-.1,11.771-.964a5.769,5.769,0,0,0,1.632-.6,5.068,5.068,0,0,0,2.061-2.694,3.479,3.479,0,0,0,.234-.885,3.065,3.065,0,0,0-2.259-2.884,17.348,17.348,0,0,0-3.908-.5,12.326,12.326,0,0,1-10.9-10.294c-.048-.287-6.476-.119-7.17.251a5.97,5.97,0,0,0-1.721,2.257C146.906,408.54,146.236,409.761,145.621,411Z" transform="translate(24.131 68.058)" fill="#a26565"/>
    <path id="Path_348" data-name="Path 348" d="M176.42,364.433c.084,12.932-3.668,25.572-8.072,37.7q-2.618,7.218-5.551,14.309c-1.159,2.8-2.467,5.912-1.224,8.677a20.945,20.945,0,0,0-11-1.537c1.433-2.933,1.3-6.344,1.362-9.576a84.124,84.124,0,0,1,1.41-13.2,73.753,73.753,0,0,1,6.447-19.085,14.493,14.493,0,0,0,1.249-4.022,25.716,25.716,0,0,0-.532-9.281,55.388,55.388,0,0,0-7.708-18.912l-.036.383a55.871,55.871,0,0,1-.968,5.728c-.842,4-1.828,8.014-1.679,12.04a65.3,65.3,0,0,1-.789,12.765,19.427,19.427,0,0,1-1.285,4.823c-.412.928-.95,1.8-1.272,2.759a12.585,12.585,0,0,0-.5,3.411,115.871,115.871,0,0,0,1.984,29.168,18.484,18.484,0,0,0-9.632,2.2,118.941,118.941,0,0,1-5.079-21.005,69.879,69.879,0,0,1,.777-25.41,33.826,33.826,0,0,0,.627-8.468c-.257-5.655-1.644-11.185-3.023-16.678l-2.1-8.378q-1.493-5.986-2.987-11.915a25.365,25.365,0,0,1-1.124-8.056,20.066,20.066,0,0,1,.932-4.381,48.927,48.927,0,0,1,6.614-13.549c11.515.646,23.166-.431,34.658-1.317a1.729,1.729,0,0,1,2.283,1.759l4.32,24.536a61.7,61.7,0,0,1,1.224,10.354c0,3.471-.537,6.93-.405,10.394C175.512,355.342,176.4,359.759,176.42,364.433Z" transform="translate(21.135 51.057)" fill="#454b69"/>
    <path id="Path_349" data-name="Path 349" d="M150.874,345.992a55.859,55.859,0,0,1-.967,5.728c-2.5-4.339-5.2-8.57-7.511-13.016-.6-1.144-1.159-2.3-1.727-3.466l-1.7-3.471c-.317-.652-.633-1.3-.921-1.968a14.3,14.3,0,0,1-1.069-2.993c.836-.155,2.9,2.106,3.526,2.7a48.334,48.334,0,0,1,3.585,3.973,43.687,43.687,0,0,1,3.741,4.908A23.881,23.881,0,0,1,150.874,345.992Z" transform="translate(23.037 54.961)" opacity="0.1"/>
    <path id="Path_350" data-name="Path 350" d="M160.732,242.087s-6.393,10.2-5.21,12.34-20.137-1.9-20.137-1.9,11.611-10.2,10.421-14.476S160.732,242.087,160.732,242.087Z" transform="translate(22.769 39.83)" fill="#efb7b9"/>
    <path id="Path_351" data-name="Path 351" d="M154.3,248.141a14.477,14.477,0,1,0-14.455-14.476A14.465,14.465,0,0,0,154.3,248.141Z" transform="translate(23.519 36.863)" fill="#efb7b9"/>
    <path id="Path_352" data-name="Path 352" d="M162.749,251.532a14.674,14.674,0,0,0-6.077-4.895,21.645,21.645,0,0,0-4.32-1.065l-5.766-1.017a7.332,7.332,0,0,0-4.236.1,6.947,6.947,0,0,0-1.793,1.322c-2,1.861-3.944,3.9-6.459,4.979-.688.293-1.4.509-2.092.8a12.081,12.081,0,0,0-6.106,6.583c-1.255,2.957-1.291,6.17-1.2,9.384a16.511,16.511,0,0,0,.328,3.3,21.276,21.276,0,0,0,1.093,3.028,55.484,55.484,0,0,1,2,6.422q2.239,8.588,3.728,17.354a6.521,6.521,0,0,0,.723,2.394,8.59,8.59,0,0,0,2,1.922,12.488,12.488,0,0,1,1.667,1.658,2.162,2.162,0,0,1,.543.885c.186.862-.6,1.6-1.2,2.232a10.823,10.823,0,0,0-2.7,4.71,1.9,1.9,0,0,0-.43,1.3,2.272,2.272,0,0,1,.138,1.029,2.33,2.33,0,0,1-.544.845,3.189,3.189,0,0,0-.6,2.561,40.494,40.494,0,0,0,14.149,3.315c1.2.061,2.39.061,3.585.2.848.107,1.686.28,2.534.382a27.04,27.04,0,0,0,3.7.1c6.436-.131,13.057-.293,18.965-2.848.556-3.034-.645-6.128-1.4-9.12-1.2-4.788-1.493-9.689-2.39-14.519-.6-3.3-1.493-6.547-2-9.868a24.155,24.155,0,0,1,.286-9.994c.807-2.861,1.053-5.781,1.889-8.636s1.422-5.948.478-8.773C170.057,254.105,166.43,251.334,162.749,251.532Z" transform="translate(20.967 41.084)" fill="#6c63ff"/>
    <path id="Path_353" data-name="Path 353" d="M169.629,226.96c.7-2.568-.681-5.243-2.331-7.33-1.793-2.245-4.075-4.267-6.877-4.83-2.277-.46-4.638.1-6.955-.09-2.05-.161-4.022-.9-6.059-1.2a19.148,19.148,0,0,0-5.545.209,21.074,21.074,0,0,0-5.049,1.412c-6.154,2.735-9.758,9.474-10.594,16.158s.627,13.424,2.085,20l1.321,5.948a118.373,118.373,0,0,1,3.113,18.743c.364,6.332-.318,12.83-2.917,18.611a40.008,40.008,0,0,0,18.363-20.819c.932-2.448,1.625-4.992,2.665-7.4.89-2.071,2.031-4.034,2.821-6.147a20,20,0,0,0,1.26-7.462c-.048-1.915-.364-3.818-.311-5.733a7.922,7.922,0,0,1,1.864-5.3c1.2-1.228,2.838-1.8,4.349-2.592a18.112,18.112,0,0,0,6.09-5.086,5.592,5.592,0,0,0,1.243-3.208C168.4,229.443,169.259,228.319,169.629,226.96Z" transform="translate(21.186 35.89)" fill="#a26565"/>
    <path id="Path_354" data-name="Path 354" d="M163.672,319.243a38.557,38.557,0,0,0,.2,4.471c.245,1.1.813,2.095,1.147,3.172a15.116,15.116,0,0,1,.508,3.813c.048,1.077-.036,2.394-.992,2.9-.418.222-.921.222-1.356.414s-.807.711-.556,1.119.681.341,1.076.418.818.485.6.814a.682.682,0,0,1-.347.221,4.267,4.267,0,0,0-1.123.539,1.153,1.153,0,0,0-.46,1.1.67.67,0,0,0,.135.27.657.657,0,0,0,.238.185.7.7,0,0,0,.3.062.677.677,0,0,0,.293-.074,2.989,2.989,0,0,0-.282,1.2c1.53.658,3.245-.2,4.679-1.036a17.676,17.676,0,0,0,1.793-1.148,8.985,8.985,0,0,0,3.489-7.642,17.916,17.916,0,0,0-.341-2.184,32.947,32.947,0,0,0-.878-3.716c-.412-1.287-.973-2.514-1.458-3.777-1.027-2.687-1.69-5.5-2.623-8.223a.952.952,0,0,0-1.112-.838,10.855,10.855,0,0,0-3.112.287c-.6.18-1.62.6-1.9,1.2s.167,1.1.436,1.6A13.413,13.413,0,0,1,163.672,319.243Z" transform="translate(27.161 52.35)" fill="#efb7b9"/>
    <path id="Path_355" data-name="Path 355" d="M164.473,255.848a4.36,4.36,0,0,1,.765,1.065c2.056,3.741,2.079,8.21,2.175,12.477.107,4.787.37,9.576.633,14.393l.783,14.363c.078,1.37.15,2.741.347,4.1.921.234.956,1.43.854,2.394-.662,5.853-2.306,11.879-.6,17.511a1.755,1.755,0,0,0,.4.778,4.655,4.655,0,0,0-2.672-.036c-.854.18-1.679.5-2.54.694-1.088.245-2.318.353-3.059,1.2a59.629,59.629,0,0,1-2-7.732c-.407-2.394-.52-4.86-1.488-7.073a29.164,29.164,0,0,0-1.392-2.574c-2.5-4.476-3.735-9.534-4.936-14.525a21.235,21.235,0,0,1-.382-7.217,24.918,24.918,0,0,0,.3-3.321,25.692,25.692,0,0,0-.46-3.5,23.472,23.472,0,0,1,.7-10.12c.9-3.045,1.686-6.253,3.585-8.815S161.3,255.89,164.473,255.848Z" transform="translate(25.386 43.029)" opacity="0.1"/>
    <path id="Path_356" data-name="Path 356" d="M165.08,255.438a4.393,4.393,0,0,1,.765,1.071c2.055,3.735,2.079,8.211,2.175,12.477.107,4.788.37,9.576.633,14.363l.783,14.363c.077,1.37.15,2.742.347,4.1.919.234.956,1.431.848,2.395-.658,5.853-2.3,11.873-.6,17.51a1.752,1.752,0,0,0,.4.778,4.651,4.651,0,0,0-2.67-.035c-.855.179-1.68.5-2.54.688-1.088.251-2.319.353-3.059,1.2a58.725,58.725,0,0,1-1.984-7.767c-.407-2.394-.52-4.854-1.488-7.067a28.6,28.6,0,0,0-1.392-2.574c-2.509-4.476-3.735-9.539-4.936-14.531a21.235,21.235,0,0,1-.382-7.217,15.591,15.591,0,0,0-.161-6.816,23.426,23.426,0,0,1,.7-10.114c.9-3.045,1.686-6.253,3.585-8.815S161.908,255.486,165.08,255.438Z" transform="translate(25.49 42.96)" fill="#6c63ff"/>
    <g id="Group_3" data-name="Group 3" transform="translate(151.007 249.292)" opacity="0.1">
      <path id="Path_357" data-name="Path 357" d="M166.1,219.63c-1.793-2.245-4.076-4.267-6.878-4.83-2.276-.46-4.637.1-6.955-.09-2.049-.161-4.021-.9-6.058-1.2a19.148,19.148,0,0,0-5.545.209,21.074,21.074,0,0,0-5.049,1.412,15.04,15.04,0,0,0-2.492,1.418,21.244,21.244,0,0,1,4.464-1.2,19.1,19.1,0,0,1,5.538-.21c2.044.264,4.01,1,6.065,1.161,2.313.186,4.673-.364,6.955.09,2.8.563,5.1,2.591,6.871,4.835,1.655,2.083,3.036,4.758,2.336,7.332-.37,1.353-1.23,2.537-1.464,3.932a5.553,5.553,0,0,1-1.249,3.208,18.173,18.173,0,0,1-4.385,4.087c.46-.216.932-.431,1.38-.665a18.1,18.1,0,0,0,6.09-5.087,5.586,5.586,0,0,0,1.243-3.207c.238-1.412,1.093-2.573,1.464-3.932C169.132,224.392,167.746,221.717,166.1,219.63Z" transform="translate(-128.619 -213.402)" opacity="0.1"/>
      <path id="Path_358" data-name="Path 358" d="M155.93,237.793a6.041,6.041,0,0,1,.806-.7,12.407,12.407,0,0,0-3.89,2.394,8.019,8.019,0,0,0-1.864,5.3c-.071,1.915.27,3.818.311,5.728a20.011,20.011,0,0,1-1.26,7.468c-.789,2.112-1.93,4.069-2.82,6.146-1.034,2.394-1.727,4.944-2.659,7.391a40.085,40.085,0,0,1-15.184,18.923c-.035.077-.065.161-.1.238a40.013,40.013,0,0,0,18.363-20.819c.932-2.447,1.625-4.992,2.665-7.4.89-2.071,2.031-4.034,2.82-6.146a19.983,19.983,0,0,0,1.262-7.464c-.048-1.915-.364-3.818-.311-5.732A8,8,0,0,1,155.93,237.793Z" transform="translate(-129.267 -209.418)" opacity="0.1"/>
    </g>
  </g>
</svg>
