<svg xmlns="http://www.w3.org/2000/svg" xmlns:xlink="http://www.w3.org/1999/xlink" width="163.952" height="150.417" viewBox="0 0 163.952 150.417">
  <defs>
    <linearGradient id="linear-gradient" x1="0.5" y1="1" x2="0.5" gradientUnits="objectBoundingBox">
      <stop offset="0" stop-color="gray" stop-opacity="0.251"/>
      <stop offset="0.54" stop-color="gray" stop-opacity="0.122"/>
      <stop offset="1" stop-color="gray" stop-opacity="0.102"/>
    </linearGradient>
  </defs>
  <g id="personal_dev" transform="translate(0 -0.023)">
    <path id="Path_392" data-name="Path 392" d="M300.112,107.692c-8.987-.312-17.545-3.211-25.713-6.381s-16.273-6.687-25.043-8.377c-5.642-1.081-12.093-1.235-16.639,1.789-4.373,2.911-5.788,7.936-6.547,12.6-.563,3.508-.908,7.2.659,10.482,1.087,2.28,3.018,4.2,4.353,6.381,4.647,7.6,1.363,16.967-3.673,24.386-2.361,3.48-5.1,6.8-6.924,10.511s-2.667,7.949-1.072,11.729c1.58,3.754,5.347,6.558,9.428,8.538,8.288,4.018,18.054,5.169,27.577,5.818,21.081,1.441,42.273.818,63.411.188a186.48,186.48,0,0,0,23.373-1.676c4.274-.672,8.686-1.738,11.789-4.317a9.869,9.869,0,0,0,2.275-12.9c-4.428-6.871-16.665-8.579-19.76-15.954-1.7-4.06.047-8.581,2.521-12.344,5.31-8.071,14.208-15.162,14.677-24.4.323-6.338-3.957-12.688-10.571-15.689-6.933-3.144-16.549-2.748-21.663,2.457C317.3,105.907,308.045,107.968,300.112,107.692Z" transform="translate(-208.266 -84.147)" fill="#6c63ff" opacity="0.1"/>
    <ellipse id="Ellipse_35" data-name="Ellipse 35" cx="57.052" cy="7.718" rx="57.052" ry="7.718" transform="translate(16.945 135.004)" fill="#6c63ff" opacity="0.1"/>
    <path id="Path_393" data-name="Path 393" d="M400.3,88.638s-1.766-3.485-1.528-4.521-1.242-3.249-1.242-3.249l.1-3.671s-.2.375-1.271.7c-.09-.118-.188-.235-.289-.345a7.567,7.567,0,0,0-1.28-1.068l-1.877-4.05-1.815-2.78s-2.862-5.818-5.818-7.1l-.466-.91a.071.071,0,0,0,.028-.092l-.473-.925a.073.073,0,0,0-.092-.034l-.452-.886a7.115,7.115,0,0,0-1.314-3.17c-.047-.066-.1-.126-.146-.188l.736-.026a2.462,2.462,0,0,0,1.8-.563,1.646,1.646,0,0,0,.336-.619,2.628,2.628,0,0,0,.109-.55v-.541a1.511,1.511,0,0,0-.032-.188.129.129,0,0,0-.015-.073,2.189,2.189,0,0,0-.058-.218.292.292,0,0,1-.013-.043c-.026-.075-.054-.15-.086-.223a.211.211,0,0,1-.013-.03c-.034-.073-.071-.145-.111-.214L385,53.039h0a.754.754,0,0,0-.047-.084,5.308,5.308,0,0,0-2.252-1.689,26.03,26.03,0,0,0-2.44-1.126,13.138,13.138,0,0,0-9.572.135,3.789,3.789,0,0,0-.852.454,4.4,4.4,0,0,0-.929,1.092l-1.455,2.149a3.038,3.038,0,0,0-.471.867c-.272,1.021.582,2.044.486,3.1-.049.524-.33,1-.385,1.528a3.636,3.636,0,0,0,.55,1.937l2.082,4.129c-.111.542-.233,1.1-.366,1.635h0a5.539,5.539,0,0,0-1.37,1.824l-.028.015h0a1.689,1.689,0,0,0-.48.469L365.5,71.393s-3.438.893-4.154,2.025c0,0-5.4-.236-5.349,7.3,0,0-.238,2.827-.375,3.2s0,4.191,0,4.191l-.064,7.725a47.966,47.966,0,0,0,0,5.557c.206,1.46.445,7.018.445,7.018s1.289,5.417.813,7.348c-.458,1.849,0,5.892.751,5.908.143.295.306.439.484.357a2.071,2.071,0,0,1,.238-.086v4.615s-.929,6.466.113,7.7a25.16,25.16,0,0,0-1.708,3.1l-7.3-.392-.929.261h0l-.852.238-.516,11.875.206.015-.015.362.488.036-.679,11.96,10.107.831a9.05,9.05,0,0,1-1.162,2.168c-.375.188-1.194-.375-1.385-.143a1.554,1.554,0,0,1-1.432.375c-.668-.143-1.1.612-1.1.612s.1.086.244.246a6.428,6.428,0,0,0-3.2.826c-.334.169-.542.295-.542.295H346.65l1.083,6.909.764.522.188,5.443s3.056,9.42,4.456,9.358a.632.632,0,0,0,.471-.236c.751-.867.231-3.846.231-3.846v-4.959s1.145-.5,1.017-.88,1.847-4.5,2.023-4.88a.032.032,0,0,0,.015-.03c0-.424.86-.9.811-1.083s2.1-1.366,2.252-2.4,1.575-.471,1.575-.471l1.813-2.083a25.234,25.234,0,0,0,.336,4.767,25.479,25.479,0,0,1,1.194,5.559s-.526,2.59,0,3.438a9.1,9.1,0,0,0,1.6,1.533,21.37,21.37,0,0,0-.465,5.139v2.008l4.011,1.126s.126-1,.317-1,2.738,1.946,2.738,1.946,9.8.126,12.286,0c.938-.047,1.194-.45,1.049-.938a3.524,3.524,0,0,0-2.767-1.946c-1.911-.126-4.33-2.134-4.33-2.134s.188-.441-.828-1.068c-.7-.432-2.645-2.179-3.846-3.2.056-.077.115-.154.169-.237,0,0-1.624-2.252-1.288-3.251a4.684,4.684,0,0,0-.145-2.44,19.4,19.4,0,0,1-.907-4.193c0-.9-.135-5.987-.233-9.6l.837.069.017-.36.375.034,3.549.327-.109-3.793a23.739,23.739,0,0,0,3.722-1.892,7.593,7.593,0,0,1,3.724-1.6s4.058-2.166,4.679-3.061.563-7.395.563-7.395l-.334-13.93v-.011s-.285-6.734-.86-8.195c-.21-.541-.73-2.342-1.3-4.4a3.4,3.4,0,0,1,.98.041c.021.5.034.848.034.967,0,.8,1.145,1.479,1.145,1.479l-.811-18.018V91.787c2.5.8,8.545,1.044,8.545,1.044A3.226,3.226,0,0,0,400.3,88.638ZM376.722,73.157h-.013a12.5,12.5,0,0,1,.347-1.4Zm-16.408,61.8c1.481.244,3.191.173,3.32-.114.013-.028.03-.079.053-.145.047.083.092.167.139.253l-.145,2.718v.062l-4.88-.263A3.893,3.893,0,0,1,360.314,134.958Zm16.267,13.713-.126-4.4c.218-.811.413-1.547.58-2.177.075.524.139,1.006.188,1.451C377.684,147.719,377,148.533,376.581,148.67ZM390.47,82.683c-.28.107-1.344-.563-2.354-1.258,0-.128.009-.253.015-.375.143-2.874-4.536-4.662-5.969-4.993a5.145,5.145,0,0,1-1.006-.375,23.464,23.464,0,0,1-2.222-1.256l.019-.054s-1.847-1.169-1.886-2.628a24.955,24.955,0,0,1,1.588-3.853c.036-.073.075-.15.113-.223a7.367,7.367,0,0,0,2.4-1.273c.287,3.754,5.719,6.984,5.719,6.984l.58.938.137.221c-.293.173-.434.312-.334.392a17,17,0,0,1,1.824,2.99c.113.214.188.347.188.347s.888,2.416,1.4,4.437a.375.375,0,0,0-.214-.023Z" transform="translate(-312.226 -49.28)" fill="url(#linear-gradient)"/>
    <path id="Path_394" data-name="Path 394" d="M541.332,131.57l-.064.084-.218.291-4.176,2.95-.886-1.456-.563-.938s-8.324-4.993-4.745-9.8,8.868,6.1,8.868,6.1Z" transform="translate(-460.99 -107.902)" fill="#ffc5d3"/>
    <rect id="Rectangle_26" data-name="Rectangle 26" width="0.143" height="1.175" rx="0.071" transform="matrix(0.893, -0.45, 0.45, 0.893, 71.784, 11.911)" fill="#3a3768"/>
    <rect id="Rectangle_27" data-name="Rectangle 27" width="0.081" height="0.387" rx="0.04" transform="matrix(0.893, -0.45, 0.45, 0.893, 67.141, 13.218)" fill="#3a3768"/>
    <rect id="Rectangle_28" data-name="Rectangle 28" width="0.09" height="0.674" rx="0.045" transform="matrix(0.893, -0.45, 0.45, 0.893, 67.456, 13.851)" fill="#3a3768"/>
    <rect id="Rectangle_29" data-name="Rectangle 29" width="0.086" height="0.679" rx="0.043" transform="matrix(0.893, -0.45, 0.45, 0.893, 67.865, 14.662)" fill="#3a3768"/>
    <rect id="Rectangle_30" data-name="Rectangle 30" width="4.767" height="9.689" rx="2.24" transform="matrix(0.893, -0.45, 0.45, 0.893, 66.605, 12.055)" fill="#3a3768"/>
    <path id="Path_395" data-name="Path 395" d="M523.646,104.665a.169.169,0,0,0-.075.229l.015.032a.171.171,0,0,1-.075.231l-1.806.908a.169.169,0,0,1-.229-.075l-.017-.032a.171.171,0,0,0-.229-.077l-.351.178a.323.323,0,0,0-.145.437l3.836,7.615a.328.328,0,0,0,.439.145l3.149-1.586a.328.328,0,0,0,.144-.439l-3.838-7.618a.327.327,0,0,0-.439-.145Z" transform="translate(-453.608 -94.063)" fill="#6c63ff"/>
    <rect id="Rectangle_31" data-name="Rectangle 31" width="0.666" height="0.135" rx="0.068" transform="matrix(0.893, -0.45, 0.45, 0.893, 68.455, 11.448)" fill="#e6e8ec"/>
    <circle id="Ellipse_36" data-name="Ellipse 36" cx="0.077" cy="0.077" r="0.077" transform="translate(69.158 11.047)" fill="#e6e8ec"/>
    <path id="Path_396" data-name="Path 396" d="M545.723,261.28l-1.173,31.479s3.942-1.314,4.551-.328-.657-15.766-.657-15.766Z" transform="translate(-472.982 -221.472)" fill="#5f5570"/>
    <path id="Path_397" data-name="Path 397" d="M545.723,261.28l-1.173,31.479s3.942-1.314,4.551-.328-.657-15.766-.657-15.766Z" transform="translate(-472.982 -221.472)" opacity="0.15"/>
    <path id="Path_398" data-name="Path 398" d="M469.472,770.313c-2.44.126-12.074,0-12.074,0s-2.5-1.939-2.691-1.939-.312,1-.312,1l-3.941-1.126v-2s-.126-5.7,1.062-5.944a54.873,54.873,0,0,1,6.445,0c.188-.062,3.754,3.317,4.754,3.942s.813,1.064.813,1.064,2.378,2,4.255,2.126a3.459,3.459,0,0,1,2.72,1.939C470.645,769.864,470.392,770.266,469.472,770.313Z" transform="translate(-396.543 -626.744)" fill="#bc8487"/>
    <path id="Path_399" data-name="Path 399" d="M469.489,796.686c-2.44.126-12.074,0-12.074,0s-2.5-1.939-2.691-1.939-.312,1-.312,1l-3.941-1.126V792.66L454.16,794l2.941,1.751h13.418C470.662,796.237,470.408,796.639,469.489,796.686Z" transform="translate(-396.56 -653.117)" opacity="0.1"/>
    <path id="Path_400" data-name="Path 400" d="M493.43,788.889s3-2.877,5.011-2.065" transform="translate(-431.457 -648.259)" stroke="#000" stroke-miterlimit="10" stroke-width="1" opacity="0.1"/>
    <path id="Path_401" data-name="Path 401" d="M357.2,684.1c.126.375-1,.877-1,.877v4.942s.51,2.967-.227,3.833a.618.618,0,0,1-.462.235c-1.376.062-4.379-9.323-4.379-9.323l-.188-5.422-.751-.52-1.064-6.883h1.941s.2-.126.533-.295c.938-.479,2.9-1.314,3.971-.518L359.2,679.2S357.077,683.723,357.2,684.1Z" transform="translate(-314.241 -554.043)" fill="#bc8487"/>
    <path id="Path_402" data-name="Path 402" d="M355.973,697.417a.617.617,0,0,1-.462.235c-1.376.062-4.379-9.323-4.379-9.323l-.188-5.422-.751-.52L349.13,675.5h1.941s.2-.126.533-.295l.467,7.051.25,6.068S354.678,694.936,355.973,697.417Z" transform="translate(-314.24 -557.711)" opacity="0.1"/>
    <path id="Path_403" data-name="Path 403" d="M414.071,495.031c-.61.892-4.6,3.05-4.6,3.05a7.344,7.344,0,0,0-3.66,1.6,53.919,53.919,0,0,1-7.742,3.626c-2.971,1.222-5.631,2.239-5.631,2.239l-3.063,3.566-2.333,2.716s-1.408-.563-1.548.469-2.252,2.205-2.205,2.393-.8.657-.8,1.079-3.144-3.05-3.1-5.161a5.087,5.087,0,0,0-1.6-3.566s.422-.751,1.079-.61a1.51,1.51,0,0,0,1.408-.375c.188-.235.985.328,1.361.141s1.877-3.895,1.877-3.895l5.85-3.925,11.637-7.8.537-.36s1.548.709.92-5.1c-.122-1.126-.327-2.494-.638-4.161C399.906,470.673,406.8,469.5,406.8,469.5l6.053,2.018,1.455,2.252v.011l.328,13.878S414.681,494.14,414.071,495.031Z" transform="translate(-337.529 -390.611)" fill="#433a59"/>
    <path id="Path_404" data-name="Path 404" d="M447.98,592.815s.019.666.047,1.7c-2.971,1.222-5.631,2.239-5.631,2.239l-3.063,3.566c-.051-2.956-.039-6.8,0-10.732l11.637-7.8C449.53,587.126,447.98,592.815,447.98,592.815Z" transform="translate(-387.486 -481.825)" opacity="0.1"/>
    <path id="Path_405" data-name="Path 405" d="M516.815,473.8v.011l-9.1.176s-1.6,6.241-1.83,7.555c-.058.323-.411,1.7-.91,3.6-.122-1.126-.327-2.494-.638-4.161-1.924-10.276,4.974-11.449,4.974-11.449l6.053,2.018Z" transform="translate(-440.039 -390.635)" opacity="0.1"/>
    <path id="Path_406" data-name="Path 406" d="M437.848,387.493l-1.173,22.523s-.845,33.08,0,35.239a25.677,25.677,0,0,1,1.173,5.537s-.516,2.581,0,3.425,2.158,1.783,2.112,2.252,5.021,3,7.648-1.032c0,0-1.6-2.252-1.267-3.238a4.808,4.808,0,0,0-.141-2.44,19.526,19.526,0,0,1-.891-4.182c0-1.413-.328-13.232-.328-13.232s5.115-18.769,5.349-20.083,1.83-7.555,1.83-7.555l9.666-.188s-.281-6.71-.845-8.164-3.331-12.106-3.331-12.106Z" transform="translate(-385.05 -321.361)" fill="#433a59"/>
    <path id="Path_407" data-name="Path 407" d="M191.583,469.89l-.839.24-.034.83,25.154.325v-.327Z" transform="translate(-154.916 -381.678)" fill="#7b728f"/>
    <path id="Path_408" data-name="Path 408" d="M470.5,123.775c-3.66,7.423-1.387,8.975-1.025,9.167-.775-.36-10.85-5.094-9.525-6.3.862-.783,1.6-4.187,2.033-6.627.257-1.456.407-2.569.407-2.569l10.573,1.939A49.844,49.844,0,0,0,470.5,123.775Z" transform="translate(-404.164 -104.637)" fill="#ffc5d3"/>
    <path id="Path_409" data-name="Path 409" d="M568.117,174.52l-.218.291-4.184,2.95-.886-1.456a45.411,45.411,0,0,1,5.156-2.065Z" transform="translate(-487.831 -150.768)" opacity="0.1"/>
    <path id="Path_410" data-name="Path 410" d="M571.011,182.163c-.375,1.314-6.71,0-6.71,0l-.657-1.032s-.066-.131-.176-.345a17.053,17.053,0,0,0-1.792-2.979c-.516-.422,5.537-2.487,5.537-2.487l1.854,4.035a7.474,7.474,0,0,1,1.258,1.064A1.975,1.975,0,0,1,571.011,182.163Z" transform="translate(-486.868 -151.645)" fill="#e5e8ef"/>
    <path id="Path_411" data-name="Path 411" d="M555.55,215s3.754,2.962,4.317,2.748,9.666,5.933,9.666,5.933a3.208,3.208,0,0,1-3.238,4.176s-9.056-.375-9.431-1.689S555.55,215,555.55,215Z" transform="translate(-481.918 -183.878)" fill="#5f5570"/>
    <path id="Path_412" data-name="Path 412" d="M483.382,183.256l-4.082,4.223,5.725,36.412,2.252-1.314s5.818,2.581,6.288.188.34-11.824.34-11.824l-.762-17.038s-2.675-5.959-2.675-6.147-3.857-3.1-3.857-3.1l-1.821-1.408Z" transform="translate(-419.979 -158.087)" opacity="0.1"/>
    <path id="Path_413" data-name="Path 413" d="M483.382,180.256l-4.082,4.223,5.725,36.412,2.252-1.314s5.818,2.581,6.288.188.34-11.824.34-11.824l-.762-17.038s-2.675-5.959-2.675-6.147-3.857-3.1-3.857-3.1l-1.821-1.408Z" transform="translate(-419.979 -155.65)" fill="#e5e8ef"/>
    <path id="Path_414" data-name="Path 414" d="M497.426,180.053l-1.126,2.3,1.126,1.188s4.035,8.149,3.238,12.982l.845,15.907,2.721,2.675,2.158-2.492-1.032-14.452s-2.768-11.918-5.678-15.625l-.845-3.285Z" transform="translate(-433.788 -154.838)" opacity="0.1"/>
    <path id="Path_415" data-name="Path 415" d="M497.426,178.053l-1.126,2.3,1.126,1.188s4.035,8.149,3.238,12.982l.845,15.907,2.721,2.675,2.158-2.492-1.032-14.452s-2.768-11.918-5.678-15.625l-.845-3.285Z" transform="translate(-433.788 -153.213)" fill="#bc8487"/>
    <path id="Path_416" data-name="Path 416" d="M482.28,119.348c-1.025,1.652-1.832,3.106-2.462,4.386a7.217,7.217,0,0,1-2.046.295c-2.32,0-3.656-1.6-4.97-3.309-.3-.387-1.288-.3-1.5-.751.257-1.456.407-2.569.407-2.569Z" transform="translate(-413.48 -104.596)" opacity="0.1"/>
    <path id="Path_417" data-name="Path 417" d="M481.834,82.24a7.194,7.194,0,1,1-1.368-4.221A7.194,7.194,0,0,1,481.834,82.24Z" transform="translate(-410.349 -70.19)" fill="#ffc5d3"/>
    <path id="Path_418" data-name="Path 418" d="M467.635,158.6l-5.912-7.132s-.546-.22,1.3-2.151c0,0,6.776,5.282,7.2,6.179S467.635,158.6,467.635,158.6Z" transform="translate(-405.64 -130.525)" opacity="0.1"/>
    <path id="Path_419" data-name="Path 419" d="M466.635,156.6l-5.912-7.132s-.546-.22,1.3-2.151c0,0,6.776,5.282,7.2,6.179S466.635,156.6,466.635,156.6Z" transform="translate(-404.827 -128.901)" fill="#e5e8ef"/>
    <path id="Path_420" data-name="Path 420" d="M521.522,228.8s-1.126-.676-1.126-1.473-.563-12.059-.563-12.059-.826-6.721-1.689-12.063h0c-.507-3.148-1.027-5.818-1.395-6.348l-.015-.023c-.985-1.267-.8-7.461-6.945-16.517a33.949,33.949,0,0,0,3.754,2.29,5.148,5.148,0,0,0,.989.375c1.408.328,6.006,2.111,5.865,4.974s.328,9.431.328,9.431v13.463Z" transform="translate(-444.746 -155.707)" fill="#5f5570"/>
    <path id="Path_421" data-name="Path 421" d="M578.863,204.234c-.375,1.314-6.71,0-6.71,0L571.5,203.2s-.066-.131-.176-.345a.122.122,0,0,1-.009-.023,20.5,20.5,0,0,0,6.866-.343A1.975,1.975,0,0,1,578.863,204.234Z" transform="translate(-494.72 -173.716)" opacity="0.1"/>
    <path id="Path_422" data-name="Path 422" d="M572.3,201.625s1.971,5.443,1.689,6.8,4.551,6.71,4.551,6.71l4.6-3.191s-1.736-3.472-1.5-4.5-1.22-3.238-1.22-3.238l.094-3.656S579.667,202.136,572.3,201.625Z" transform="translate(-495.524 -172.14)" fill="#5f5570"/>
    <path id="Path_423" data-name="Path 423" d="M480.773,78.395l-3.566.135a3.971,3.971,0,0,0-1.032.13,3.08,3.08,0,0,0-1.909,2.965,2.588,2.588,0,0,1-2.115,2.69.528.528,0,0,1-.389-.086.642.642,0,0,1-.165-.332,7.264,7.264,0,0,0-.9-2,1.572,1.572,0,0,0-1.126,1.2,6.725,6.725,0,0,0-.105,1.729,11.189,11.189,0,0,1-.212,2.194,7.194,7.194,0,1,1,11.523-8.615Z" transform="translate(-410.656 -70.567)" opacity="0.1"/>
    <path id="Path_424" data-name="Path 424" d="M465.836,59.75a3.971,3.971,0,0,1,1.032-.13l4.33-.161a2.431,2.431,0,0,0,1.768-.552,1.654,1.654,0,0,0,.33-.617,2.665,2.665,0,0,0-.28-2.183,5.294,5.294,0,0,0-2.217-1.689,25.755,25.755,0,0,0-2.4-1.126,12.763,12.763,0,0,0-9.4.135,3.8,3.8,0,0,0-.837.449,4.326,4.326,0,0,0-.912,1.089l-1.425,2.147a2.955,2.955,0,0,0-.449.867c-.268,1.019.563,2.038.477,3.087-.049.522-.325,1-.375,1.522a3.66,3.66,0,0,0,.542,1.928l2.5,5.051a11.189,11.189,0,0,0,.606-3.66,6.487,6.487,0,0,1,.105-1.729,1.584,1.584,0,0,1,1.126-1.2,7.238,7.238,0,0,1,.9,2,.634.634,0,0,0,.165.332.525.525,0,0,0,.388.086,2.576,2.576,0,0,0,2.115-2.69A3.07,3.07,0,0,1,465.836,59.75Z" transform="translate(-400.503 -51.845)" fill="#8f7080"/>
    <path id="Path_425" data-name="Path 425" d="M190.89,469l1.753-.5,26.432,1.44-2.909.375Z" transform="translate(-155.062 -380.549)" fill="#7b728f"/>
    <path id="Path_426" data-name="Path 426" d="M190.89,469l1.753-.5,26.432,1.44-2.909.375Z" transform="translate(-155.062 -380.549)" opacity="0.1"/>
    <path id="Path_427" data-name="Path 427" d="M324.5,501.508l-3.487-.325-1.224-.113v-19.4l.323-4.5.071-1h3.6Z" transform="translate(-259.769 -386.78)" fill="#7b728f"/>
    <path id="Path_428" data-name="Path 428" d="M323.548,503.524l-2.782-.308-.976-.107V484.72l.257-4.268.056-.952h2.87Z" transform="translate(-259.769 -389.485)" opacity="0.1"/>
    <path id="Path_429" data-name="Path 429" d="M401.42,503.229s1.736-3.808,2.464-3.926a11.2,11.2,0,0,1,2.065,0l-.118,1.1s-1.783.141-2.346,3.119Z" transform="translate(-356.716 -414.777)" fill="#7b728f"/>
    <path id="Path_430" data-name="Path 430" d="M401.42,503.229s1.736-3.808,2.464-3.926a11.2,11.2,0,0,1,2.065,0l-.118,1.1s-1.783.141-2.346,3.119Z" transform="translate(-356.716 -414.777)" opacity="0.1"/>
    <path id="Path_431" data-name="Path 431" d="M433.137,497.41s4.668,2.322,4.058,5.043l-2.534-.141s-1.22-4.058-2.181-4.27S433.137,497.41,433.137,497.41Z" transform="translate(-381.699 -413.283)" fill="#7b728f"/>
    <path id="Path_432" data-name="Path 432" d="M422.777,183.86V184l-.094,15.629s-2.393,13.138-3.05,13.654-15.062-.892-15.062-.892l-6.522-43.966c-.047-7.508,5.255-7.273,5.255-7.273.7-1.126,4.082-2.018,4.082-2.018l1.877-1.83.06-.084a1.668,1.668,0,0,1,.473-.467h0c.387-.223.633.071.773.362a2.183,2.183,0,0,1,.146.426C418.319,163.115,422.777,183.86,422.777,183.86Z" transform="translate(-353.977 -136.497)" fill="#5f5570"/>
    <path id="Path_433" data-name="Path 433" d="M462.191,185.2v.137c-2.359-4.317-11.449-20.672-13.936-21.487l.957-.657s.638-.375-.535-.751c0,0-1.83.235-1.877-1.971l1.937-1.914.473-.467h0l.773.362a2.179,2.179,0,0,1,.146.426C457.733,164.455,462.191,185.2,462.191,185.2Z" transform="translate(-393.579 -137.649)" opacity="0.1"/>
    <path id="Path_434" data-name="Path 434" d="M463.191,184.2v.137c-2.359-4.317-11.449-20.672-13.936-21.487l.957-.657s.638-.375-.535-.751c0,0-1.83.235-1.877-1.971l1.937-1.914.473-.467h0l.773.362a2.183,2.183,0,0,1,.146.426C458.733,163.455,463.191,184.2,463.191,184.2Z" transform="translate(-394.391 -136.837)" fill="#433a59"/>
    <path id="Path_435" data-name="Path 435" d="M517.76,197.819l-.015-.023c-.985-1.267-.8-7.461-6.945-16.517a33.951,33.951,0,0,0,3.754,2.29L514.12,185l.938.5Z" transform="translate(-445.567 -156.487)" opacity="0.1"/>
    <path id="Path_436" data-name="Path 436" d="M516.76,196.819l-.015-.023c-.985-1.267-.8-7.461-6.944-16.517a33.936,33.936,0,0,0,3.754,2.29L513.12,184l.938.5Z" transform="translate(-444.754 -155.674)" fill="#433a59"/>
    <path id="Path_437" data-name="Path 437" d="M506.695,172.58l-.385,1.625a2.2,2.2,0,0,0,1.969,1.768l.272-.775S506.73,174.031,506.695,172.58Z" transform="translate(-441.919 -149.42)" opacity="0.1"/>
    <path id="Path_438" data-name="Path 438" d="M506.695,171.58l-.385,1.625a2.2,2.2,0,0,0,1.969,1.768l.272-.775S506.73,173.031,506.695,171.58Z" transform="translate(-441.919 -148.607)" fill="#e5e8ef"/>
    <path id="Path_439" data-name="Path 439" d="M322.117,477.57l-1.1,24.751-1.224-.113v-19.4l.323-4.5Z" transform="translate(-259.769 -387.917)" opacity="0.1"/>
    <path id="Path_440" data-name="Path 440" d="M188.981,487.129l-.751,13.388,25.526,2.128,1.119-25.075Z" transform="translate(-152.901 -387.917)" fill="#7b728f"/>
    <path id="Path_441" data-name="Path 441" d="M189.23,484.994l.5-11.824,26.145,1.2-1.244,12.5Z" transform="translate(-153.714 -384.343)" opacity="0.1"/>
    <path id="Path_442" data-name="Path 442" d="M188.23,482.994l.5-11.824,26.145,1.2-1.244,12.5Z" transform="translate(-152.901 -382.718)" fill="#7b728f"/>
    <rect id="Rectangle_32" data-name="Rectangle 32" width="3.144" height="3.66" transform="translate(46.324 100.291)" fill="#c3bbc8"/>
    <path id="Path_443" data-name="Path 443" d="M408.892,455.78l-.469,1.267s-.985,6.944.235,7.789,4.833.892,5.021.469,1.5-5.208,1.5-5.208,1.173,3.519,1.783,3.238-1.408-6.971-1.408-6.971Z" transform="translate(-362.1 -379.466)" fill="#ffc5d3"/>
    <path id="Path_444" data-name="Path 444" d="M410.05,416.842v6.71s4.974.938,7.132-.683c0,0-2.018-6.5-1.267-8.138S410.05,416.842,410.05,416.842Z" transform="translate(-363.726 -345.784)" opacity="0.1"/>
    <path id="Path_445" data-name="Path 445" d="M410.05,415.842v6.71s4.974.938,7.132-.683c0,0-2.018-6.5-1.267-8.138S410.05,415.842,410.05,415.842Z" transform="translate(-363.726 -344.971)" fill="#e5e8ef"/>
    <path id="Path_446" data-name="Path 446" d="M399.073,205.359l-1.314.7s-.235,2.815-.375,3.191a41.133,41.133,0,0,0,0,4.176l-.064,7.7a48.5,48.5,0,0,0,0,5.537c.2,1.455.43,6.991.43,6.991s1.269,5.4.8,7.32.047,6.241.845,5.865,8.164-1.83,8.54-2.112.188-2.909,0-3.238a27.951,27.951,0,0,1-1.22-5.818c.094-1.032-.328-10.088-.328-10.088s.7-9.666.985-11.918-.563-8.868-1.314-8.962S403.108,199.493,399.073,205.359Z" transform="translate(-353.313 -173.762)" opacity="0.1"/>
    <path id="Path_447" data-name="Path 447" d="M397.073,203.359l-1.314.7s-.235,2.815-.375,3.191a41.133,41.133,0,0,0,0,4.176l-.064,7.7a48.5,48.5,0,0,0,0,5.537c.2,1.455.43,6.991.43,6.991s1.269,5.4.8,7.32.047,6.241.845,5.865,8.164-1.83,8.54-2.112.188-2.909,0-3.238a27.953,27.953,0,0,1-1.22-5.818c.094-1.032-.329-10.088-.329-10.088s.7-9.666.985-11.918-.563-8.868-1.314-8.962S401.108,197.493,397.073,203.359Z" transform="translate(-351.688 -172.137)" fill="#5f5570"/>
    <g id="Group_13" data-name="Group 13" transform="translate(55.087 4.343)" opacity="0.1">
      <path id="Path_448" data-name="Path 448" d="M461.23,104.77a1.572,1.572,0,0,0-1.126,1.2,6.726,6.726,0,0,0-.105,1.729,11.189,11.189,0,0,1-.6,3.66l-2.506-5.051c-.049-.1-.1-.2-.148-.306a6.826,6.826,0,0,0,.43,1.01l2.506,5.051a11.187,11.187,0,0,0,.6-3.66,6.564,6.564,0,0,1,.105-1.729,1.581,1.581,0,0,1,1.126-1.2,7.526,7.526,0,0,1,.486.888A7.32,7.32,0,0,0,461.23,104.77Z" transform="translate(-456.74 -98.679)"/>
      <path id="Path_449" data-name="Path 449" d="M498.24,72.32a2.657,2.657,0,0,1-.045,1.4,1.656,1.656,0,0,1-.332.618,2.42,2.42,0,0,1-1.768.552l-4.328.161a3.985,3.985,0,0,0-1.034.13,3.083,3.083,0,0,0-1.909,2.965,2.588,2.588,0,0,1-2.115,2.69.527.527,0,0,1-.389-.086h0c.043.122.084.246.12.375a.619.619,0,0,0,.163.332.527.527,0,0,0,.389.086,2.574,2.574,0,0,0,2.115-2.69,3.076,3.076,0,0,1,1.909-2.965,3.985,3.985,0,0,1,1.034-.129l4.328-.161a2.431,2.431,0,0,0,1.768-.552,1.658,1.658,0,0,0,.332-.618,2.665,2.665,0,0,0-.238-2.106Z" transform="translate(-480.768 -72.32)"/>
    </g>
    <path id="Path_450" data-name="Path 450" d="M512.28,479.01a7.313,7.313,0,0,1,2.252-.8c.627.047,6.256,7.205,6.256,7.205Z" transform="translate(-446.769 -397.686)" opacity="0.1"/>
    <path id="Path_451" data-name="Path 451" d="M410.926,224.35s-2.971,1.269-2.892,2.145S410.926,224.35,410.926,224.35Z" transform="translate(-362.087 -191.473)" opacity="0.1"/>
    <path id="Path_452" data-name="Path 452" d="M404.8,246.45s-3.117,3.987-2.429,4.12S404.8,246.45,404.8,246.45Z" transform="translate(-357.407 -209.425)" opacity="0.1"/>
    <path id="Path_453" data-name="Path 453" d="M462.641,278.28s.285,8.915-2,10.041Z" transform="translate(-404.821 -235.281)" opacity="0.1"/>
    <path id="Path_454" data-name="Path 454" d="M408,400.638s2.2-1.25,2.7-1S408,400.638,408,400.638Z" transform="translate(-362.061 -333.834)" opacity="0.1"/>
    <path id="Path_455" data-name="Path 455" d="M410.05,413.108a5.9,5.9,0,0,0,2.048-.188C412.756,412.633,410.05,413.108,410.05,413.108Z" transform="translate(-363.726 -344.576)" opacity="0.1"/>
    <path id="Path_456" data-name="Path 456" d="M586.7,239.41s1.723,4.949,2.716,4.949" transform="translate(-507.221 -203.706)" opacity="0.1"/>
    <path id="Path_457" data-name="Path 457" d="M456.16,742.764s3.232-.876,3.709,0S456.16,742.764,456.16,742.764Z" transform="translate(-401.182 -612.27)" opacity="0.1"/>
    <path id="Path_458" data-name="Path 458" d="M400.157,675.21s-.805,1.233.259,1.609S400.157,675.21,400.157,675.21Z" transform="translate(-355.453 -557.711)" opacity="0.1"/>
    <path id="Path_459" data-name="Path 459" d="M515.8,583.53s2.44,2.174,3.592,2.237S515.8,583.53,515.8,583.53Z" transform="translate(-449.628 -483.239)" opacity="0.1"/>
    <path id="Path_460" data-name="Path 460" d="M966.85,109.02s-15.8-.959-13.94,10.115a2.694,2.694,0,0,0,1.4,2.847s.028-.822,1.622-.542a7.4,7.4,0,0,0,1.716.083,3.581,3.581,0,0,0,2.1-.861h0s4.443-1.834,6.169-9.1c0,0,1.278-1.584,1.228-1.991l-2.667,1.139a4.756,4.756,0,0,1,.188,3.523s-.086-3.453-.6-3.378c-.105.017-1.387.666-1.387.666s1.569,3.352.385,5.786c0,0,.451-4.129-.873-5.544l-1.877,1.1s1.834,3.461.591,6.286c0,0,.319-4.332-.985-6.019l-1.7,1.327s1.721,3.412.672,5.755c0,0-.137-5.043-1.042-5.424a10.458,10.458,0,0,0-1.714,1.851s1.179,2.478.447,3.784c0,0-.448-3.36-.816-3.378a11.152,11.152,0,0,0-1.637,3.754,8.091,8.091,0,0,1,1.278-3.966,4.462,4.462,0,0,0-2.271,1.177s.231-1.575,2.628-1.712a10.319,10.319,0,0,1,1.552-1.792,9.775,9.775,0,0,0-3.844.443s1.278-1.485,4.283-.809l1.689-1.37s-3.151-.432-4.486.045c0,0,1.537-1.314,4.938-.357l1.828-1.094a16.772,16.772,0,0,0-4.285-.375s1.689-.91,4.82.077l1.314-.587s-1.967-.387-2.543-.447-.608-.221-.608-.221a6.83,6.83,0,0,1,3.7.411A17.185,17.185,0,0,0,966.85,109.02Z" transform="translate(-804.574 -97.772)" fill="#6c63ff"/>
    <path id="Path_461" data-name="Path 461" d="M833.176,97.76s-7.132-.43-6.3,4.574a1.221,1.221,0,0,0,.634,1.286s.013-.375.732-.246a3.2,3.2,0,0,0,.777.038,1.618,1.618,0,0,0,.938-.39h0s2.006-.83,2.787-4.11c0,0,.578-.715.563-.9l-1.209.514a2.166,2.166,0,0,1,.088,1.592s-.039-1.56-.272-1.524c-.047,0-.625.3-.625.3a3.562,3.562,0,0,1,.173,2.615s.2-1.866-.394-2.506l-.846.5a3.744,3.744,0,0,1,.266,2.84,5.322,5.322,0,0,0-.445-2.72l-.768.6a3.661,3.661,0,0,1,.3,2.6s-.062-2.279-.469-2.451a4.706,4.706,0,0,0-.775.837s.533,1.126.2,1.71c0,0-.2-1.518-.375-1.526a5.053,5.053,0,0,0-.74,1.689,3.64,3.64,0,0,1,.578-1.791,2.012,2.012,0,0,0-1.027.531s.105-.711,1.192-.773a4.615,4.615,0,0,1,.7-.809,4.4,4.4,0,0,0-1.738.2,1.969,1.969,0,0,1,1.935-.375l.751-.619a6.478,6.478,0,0,0-2.027.021,2.464,2.464,0,0,1,2.23-.161l.828-.494a7.52,7.52,0,0,0-1.937-.167,2.973,2.973,0,0,1,2.179.034l.589-.265s-.888-.175-1.149-.2-.274-.1-.274-.1a3.1,3.1,0,0,1,1.67.188A7.591,7.591,0,0,0,833.176,97.76Z" transform="translate(-702.265 -88.635)" fill="#6c63ff"/>
    <ellipse id="Ellipse_37" data-name="Ellipse 37" cx="5.054" cy="0.854" rx="5.054" ry="0.854" transform="translate(153.843 134.841)" fill="#6c63ff" opacity="0.1"/>
    <ellipse id="Ellipse_38" data-name="Ellipse 38" cx="5.054" cy="0.854" rx="5.054" ry="0.854" transform="translate(0 122.129)" fill="#6c63ff" opacity="0.1"/>
    <ellipse id="Ellipse_39" data-name="Ellipse 39" cx="5.054" cy="0.854" rx="5.054" ry="0.854" transform="translate(150.326 118.3)" fill="#6c63ff" opacity="0.1"/>
    <ellipse id="Ellipse_40" data-name="Ellipse 40" cx="5.054" cy="0.854" rx="5.054" ry="0.854" transform="translate(19.55 126.71)" fill="#6c63ff" opacity="0.1"/>
    <ellipse id="Ellipse_41" data-name="Ellipse 41" cx="5.054" cy="0.854" rx="5.054" ry="0.854" transform="translate(127.796 127.444)" fill="#6c63ff" opacity="0.1"/>
    <ellipse id="Ellipse_42" data-name="Ellipse 42" cx="7.547" cy="1.276" rx="7.547" ry="1.276" transform="translate(140.288 143.571)" fill="#6c63ff"/>
    <path id="Path_462" data-name="Path 462" d="M937.314,794.748a2.192,2.192,0,0,0,.719-1.085.968.968,0,0,0-.5-1.105,1.412,1.412,0,0,0-1.329.465,1.784,1.784,0,0,1-1.293.625,1.971,1.971,0,0,0,.61-1.843.776.776,0,0,0-.171-.375c-.255-.274-.721-.156-1.027.06a3.831,3.831,0,0,0-1.254,3.206,6.143,6.143,0,0,1-.019-1.314,1.354,1.354,0,0,0-.5-1.167,1.5,1.5,0,0,0-.751-.178,1.564,1.564,0,0,0-1.226.349,1.21,1.21,0,0,0,.047,1.5,4.853,4.853,0,0,0,1.271,1.017,2.8,2.8,0,0,1,.907.865.72.72,0,0,1,.068.154h2.751a7.676,7.676,0,0,0,1.695-1.175Z" transform="translate(-786.36 -651.988)" fill="#6c63ff"/>
    <path id="Path_463" data-name="Path 463" d="M283.435,617s1.032,1.348-.475,3.378-2.75,3.754-2.252,5.023c0,0,2.275-3.78,4.129-3.833S285.471,619.279,283.435,617Z" transform="translate(-258.57 -510.427)" fill="#6c63ff"/>
    <path id="Path_464" data-name="Path 464" d="M283.7,617a1.621,1.621,0,0,1,.21.422c1.806,2.121,2.768,4.1,1.032,4.152-1.616.045-3.555,2.935-4.02,3.666a1.721,1.721,0,0,0,.054.167s2.275-3.78,4.129-3.833S285.734,619.279,283.7,617Z" transform="translate(-258.833 -510.427)" opacity="0.1"/>
    <path id="Path_465" data-name="Path 465" d="M304.906,624.849c0,.475-.053.86-.118.86s-.118-.375-.118-.86.066-.251.131-.251S304.906,624.375,304.906,624.849Z" transform="translate(-278.125 -516.553)" fill="#ffd037"/>
    <path id="Path_466" data-name="Path 466" d="M305.922,627.8c-.417.227-.781.364-.811.308s.28-.289.7-.516.253-.062.283,0S306.339,627.57,305.922,627.8Z" transform="translate(-278.482 -518.933)" fill="#ffd037"/>
    <path id="Path_467" data-name="Path 467" d="M256.682,617s-1.032,1.348.475,3.378,2.75,3.754,2.252,5.023c0,0-2.273-3.78-4.129-3.833S254.645,619.279,256.682,617Z" transform="translate(-237.262 -510.427)" fill="#6c63ff"/>
    <path id="Path_468" data-name="Path 468" d="M256.664,617a1.657,1.657,0,0,0-.212.422c-1.806,2.121-2.767,4.1-1.032,4.152,1.618.045,3.557,2.935,4.022,3.666a1.345,1.345,0,0,1-.056.167s-2.273-3.78-4.129-3.833S254.628,619.279,256.664,617Z" transform="translate(-237.244 -510.427)" opacity="0.1"/>
    <path id="Path_469" data-name="Path 469" d="M256.49,624.849c0,.475.054.86.12.86s.118-.375.118-.86-.066-.251-.131-.251S256.49,624.375,256.49,624.849Z" transform="translate(-238.988 -516.553)" fill="#ffd037"/>
    <path id="Path_470" data-name="Path 470" d="M251.9,627.8c.417.227.779.364.811.308s-.282-.289-.7-.516-.251-.062-.283,0S251.479,627.57,251.9,627.8Z" transform="translate(-235.051 -518.933)" fill="#ffd037"/>
    <path id="Path_471" data-name="Path 471" d="M258.24,654.139s2.883-.088,3.754-.708,4.435-1.357,4.649-.364,4.334,4.934,1.079,4.961-7.564-.507-8.431-1.036S258.24,654.139,258.24,654.139Z" transform="translate(-240.41 -539.33)" fill="#a8a8a8"/>
    <path id="Path_472" data-name="Path 472" d="M267.778,664.407c-3.255.026-7.564-.507-8.431-1.036-.659-.4-.923-1.845-1.012-2.511h-.1s.188,2.326,1.049,2.853,5.176,1.062,8.431,1.036c.938,0,1.263-.342,1.246-.837C268.835,664.214,268.477,664.4,267.778,664.407Z" transform="translate(-240.41 -546.055)" opacity="0.2"/>
  </g>
</svg>
