<svg xmlns="http://www.w3.org/2000/svg" xmlns:xlink="http://www.w3.org/1999/xlink" width="322" height="234" viewBox="0 0 322 234">
  <defs>
    <clipPath id="clip-path">
      <rect id="Rectangle_1" data-name="Rectangle 1" width="322" height="234" transform="translate(-0.012 1080.498)" fill="#ecebee" stroke="#707070" stroke-width="1"/>
    </clipPath>
  </defs>
  <g id="Mask_Group_1" data-name="Mask Group 1" transform="translate(0.012 -1080.498)" clip-path="url(#clip-path)">
    <g id="Web_dev" transform="translate(-0.001 1113.845)">
      <path id="Path_119" data-name="Path 119" d="M.158.089,95.844,0l-.158,169.108L0,169.2Z" transform="translate(114.61 94.182) rotate(-74.21)" fill="#3f3d56"/>
      <ellipse id="Ellipse_2" data-name="Ellipse 2" cx="1.347" cy="1.352" rx="1.347" ry="1.352" transform="translate(142.153 4.457)" fill="#6c63ff"/>
      <ellipse id="Ellipse_3" data-name="Ellipse 3" cx="1.347" cy="1.352" rx="1.347" ry="1.352" transform="translate(146.302 5.634)" fill="#6c63ff"/>
      <ellipse id="Ellipse_4" data-name="Ellipse 4" cx="1.347" cy="1.352" rx="1.347" ry="1.352" transform="translate(150.451 6.811)" fill="#6c63ff"/>
      <path id="Path_100" data-name="Path 100" d="M1409.128,667.571a15.688,15.688,0,0,0-6.574.156,15.824,15.824,0,0,0,.465-6.666,15.613,15.613,0,0,0-5.876,3.806,15.7,15.7,0,0,0-3.02-6.33,15.788,15.788,0,0,0-3.083,5.923,15.732,15.732,0,0,0-5.52-3.588s-.981,5.008,1.381,9.118a14.541,14.541,0,0,0,7.006,5.7l.02.024.011-.012c.088.033.137.05.137.05s.018-.1.044-.268l.049-.06c0,.027.006.052.01.077-.068.16-.1.252-.1.252s.051.011.143.029l0,.016.03-.01a14.486,14.486,0,0,0,8.943-1.175C1407.35,672.353,1409.128,667.571,1409.128,667.571Z" transform="translate(-1182.099 -607.174)" fill="#6c63ff"/>
      <ellipse id="Ellipse_5" data-name="Ellipse 5" cx="3.503" cy="3.516" rx="3.503" ry="3.516" transform="translate(215.463 40.572)" fill="#6c63ff"/>
      <path id="Path_120" data-name="Path 120" d="M0,0,109.434.1l0,2.388L0,2.388Z" transform="translate(157.677 59.856) rotate(15.79)" fill="#6c63ff"/>
      <path id="Path_121" data-name="Path 121" d="M0,0,18.868.018l.018,18.925L.018,18.925Z" transform="translate(164.304 74.103) rotate(15.79)" fill="#6c63ff"/>
      <path id="Path_122" data-name="Path 122" d="M0,0,18.868.018l.018,18.925L.018,18.925Z" transform="translate(198.013 83.669) rotate(15.79)" fill="#6c63ff"/>
      <path id="Path_123" data-name="Path 123" d="M0,0,18.868.018l.018,18.925L.018,18.925Z" transform="translate(231.723 93.236) rotate(15.79)" fill="#6c63ff"/>
      <path id="Path_124" data-name="Path 124" d="M0,0,14.016.013l0,1.622L0,1.622Z" transform="translate(160.478 96.625) rotate(15.79)" fill="#6c63ff"/>
      <path id="Path_125" data-name="Path 125" d="M0,0,14.016.013l0,1.622L0,1.622Z" transform="translate(194.188 106.191) rotate(15.79)" fill="#6c63ff"/>
      <path id="Path_126" data-name="Path 126" d="M0,0,14.016.013l0,1.622L0,1.622Z" transform="translate(227.897 115.758) rotate(15.79)" fill="#6c63ff"/>
      <ellipse id="Ellipse_6" data-name="Ellipse 6" cx="90.178" cy="3.346" rx="90.178" ry="3.346" transform="translate(1.778 123.005)" fill="#d0cde1"/>
      <ellipse id="Ellipse_7" data-name="Ellipse 7" cx="70.174" cy="3.346" rx="70.174" ry="3.346" transform="translate(181.985 160.926)" fill="#d0cde1"/>
      <path id="Path_101" data-name="Path 101" d="M1471.825,1174.552h20.245v8.5h-11.778v8.5h11.78v8.5h-20.246Zm24.295,0h20.246v7.388h-11.779v1.478h11.779v16.994H1496.12v-7.759H1507.9v-1.478h-11.78v-16.623Zm24.3,0h20.246v7.388h-11.779v1.478h11.779v16.994h-20.246v-7.759h11.779v-1.478h-11.778v-16.623Z" transform="translate(-1254.083 -1036.251)" fill="#3f3d56"/>
      <path id="Path_102" data-name="Path 102" d="M417.857,943.8h8.352v8.281h7.64V943.8H442.2v25.077h-8.352v-8.4h-7.64v8.4h-8.352V943.8Zm35.326,8.316h-7.351V943.8h23.061v8.316h-7.356v16.761h-8.352V952.118h0Zm19.369-8.316h8.708l5.357,8.811,5.352-8.811h8.712v25.077h-8.318V956.45l-5.746,8.916h-.144l-5.75-8.916v12.429h-8.172Zm32.285,0h8.354V960.59h11.745v8.289h-20.1V943.8Z" transform="translate(-377.057 -844.379)" fill="#3f3d56"/>
      <path id="Path_103" data-name="Path 103" d="M151.762,692.42l-.685,7.8,5.484-.459v-6.65Z" transform="translate(-125.714 -575.759)" fill="#ffb8b8"/>
      <path id="Path_104" data-name="Path 104" d="M101.433,692.42l.686,7.8-5.484-.459v-6.65Z" transform="translate(-80.412 -575.759)" fill="#ffb8b8"/>
      <path id="Path_105" data-name="Path 105" d="M259.606,690.878s1.828,11.007,1.828,12.612-.685,11.924-1.828,13.988-1.371,2.981-.914,3.9.229.688,0,1.376-.686.459,0,1.376a2.416,2.416,0,0,1,0,2.752c-.457.688.914,19.262-.914,20.638s-2.285,5.962-2.285,5.962l-5.941-.688v-5.045s-1.371-3.669-.457-5.962,1.371-14.447,1.371-14.447a4.572,4.572,0,0,1,0-1.835,1.022,1.022,0,0,0-.457-1.376c-.457-.229-.685-1.147-.685-1.147l-.686-16.74-2.742,16.51s2.742,22.473,0,25.454v5.274h-5.941l.914-5.733s-1.828-5.274-.914-6.421-2.742-19.492-2.285-20.179.228-.917,0-1.376-.914-.917-.685-1.376a2.638,2.638,0,0,0,0-1.376s-4.341-21.555-2.285-23.619S259.606,690.878,259.606,690.878Z" transform="translate(-224.19 -634.068)" fill="#2f2e41"/>
      <path id="Path_106" data-name="Path 106" d="M317.93,1066.787s.457-2.2,4.113-1.443a9.9,9.9,0,0,1,.914,2.819c0,.917.914,7.109.914,7.109s3.656,6.191-.914,6.191-6.169-1.605-6.4-3.21.228-2.064-.686-2.752-1.371-.688-1.142-1.605.685-5.5.685-5.5.229-3.44,1.485-2.522l1.257.917" transform="translate(-291.196 -945.311)" fill="#2f2e41"/>
      <path id="Path_107" data-name="Path 107" d="M259.658,1066.787s-.457-2.2-4.113-1.443a9.9,9.9,0,0,0-.914,2.819c0,.917-.914,7.109-.914,7.109s-3.656,6.191.914,6.191,6.169-1.605,6.4-3.21-.228-2.064.685-2.752,1.371-.688,1.142-1.605-.685-5.5-.685-5.5-.228-3.44-1.485-2.522l-1.257.917" transform="translate(-239.322 -945.311)" fill="#2f2e41"/>
      <ellipse id="Ellipse_8" data-name="Ellipse 8" cx="6.169" cy="6.191" rx="6.169" ry="6.191" transform="translate(20.793 2.234)" fill="#ffb8b8"/>
      <path id="Path_108" data-name="Path 108" d="M290.7,409.143s-2.513,9.86-2.97,10.09,10.511,1.147,10.511,1.147-2.742-8.485,0-9.86Z" transform="translate(-268.766 -399.8)" fill="#ffb8b8"/>
      <path id="Path_109" data-name="Path 109" d="M258.586,444.8h0l-7.534,5.229,1.371,41.047s10.054-1.147,12.339-.917,9.6-2.064,9.6-2.064l-3.2-38.57a3.162,3.162,0,0,0-2.924-2.9l-1.372-.1s-1.371,3.406-5.5,1.649A4.826,4.826,0,0,1,258.586,444.8Z" transform="translate(-238.256 -429.449)" fill="#d0cde1"/>
      <path id="Path_110" data-name="Path 110" d="M232.616,442.585,223.3,447.04l-1.828,26.371s-3.656,15.823-.685,20.409a11.561,11.561,0,0,0,8,5.045s6.626-26.371,4.8-35.314S232.616,442.585,232.616,442.585Z" transform="translate(-212.103 -427.608)" fill="#575a89"/>
      <path id="Path_111" data-name="Path 111" d="M191.508,678.628v3.44s-1.371,7.567,2.97,7.338,2.285-8.255,2.285-8.255l-1.371-2.522Z" transform="translate(-188.538 -623.882)" fill="#ffb8b8"/>
      <path id="Path_112" data-name="Path 112" d="M408.237,717.2l-.457,3.9s2.285,7.8-2.056,8.026-1.19-7.978-1.19-7.978l1.419-4.4Z" transform="translate(-365.052 -655.57)" fill="#ffb8b8"/>
      <path id="Path_113" data-name="Path 113" d="M338.678,450.311h0a26.876,26.876,0,0,1,11.253,5.871l.04.035-3.2,16.969-.457,6.191s8.454,30.269-1.371,25.912c0,0-8.454-26.371-7.312-38.525S338.678,450.311,338.678,450.311Z" transform="translate(-310.213 -434.032)" fill="#575a89"/>
      <path id="Path_114" data-name="Path 114" d="M382.9,483.722c.229-.229,2.97.319,2.97.319s5.027,17.8,5.027,20.778.685,19.95.685,19.95l-6.031.61L380.673,501.8Z" transform="translate(-346.116 -461.767)" fill="#575a89"/>
      <path id="Path_115" data-name="Path 115" d="M187.629,469.028h-1.6s-4.57,1.835-4.8,3.9-6.4,22.931-6.4,22.931l1.6,10.548,5.941-.917,1.142-11.695,5.941-12.841Z" transform="translate(-174.833 -449.596)" fill="#575a89"/>
      <path id="Path_116" data-name="Path 116" d="M294.721,363.844l.237-1.655c.055-.386.28-.893.654-.788.318.089,1.011.362,1.127.28.434-.309,1.092.231,1.549-.043.191-.115.316-.361.539-.378a.613.613,0,0,1,.4.18,2.688,2.688,0,0,0,1.024.558,1.1,1.1,0,0,0,1.078-.295.573.573,0,0,1,.191-.183.426.426,0,0,1,.274.013l1.167.319a4.515,4.515,0,0,0-.6-3.706,7.44,7.44,0,0,0-1.7-1.671q-1.084-.828-2.238-1.557a7.256,7.256,0,0,0-2.719-1.187,2.9,2.9,0,0,0-2.706.9,1.748,1.748,0,0,1-.627-.85.645.645,0,0,0,.041.987l-.987-.633c-.278.292.265.823.028,1.149a.6.6,0,0,1-.266.174,4.524,4.524,0,0,0-1.448.914,5.427,5.427,0,0,0-1.14,2.108c-.588,1.694-1.016,3.636-.18,5.221.095.18,1.345,3.146,1.512,3.262.563.391.2-.555.6,0,.316.435.257-1.231.728-.865a1.169,1.169,0,0,0,1.276.058c.2-.136.132-.889.027-1.582a.814.814,0,0,1,.989-.917A3.526,3.526,0,0,0,294.721,363.844Z" transform="translate(-268.957 -353.69)" fill="#2f2e41"/>
      <path id="Path_117" data-name="Path 117" d="M222.531,253.484l2.513,20.868h-1.6Z" transform="translate(-185.172 -210.776)" opacity="0.2"/>
      <path id="Path_118" data-name="Path 118" d="M58.351,205.847l-1.271,8.026,2.413-8.026H58.351Z" transform="translate(-47.498 -171.166)" opacity="0.2"/>
    </g>
  </g>
</svg>
