<svg xmlns="http://www.w3.org/2000/svg" width="804.621" height="521.076" viewBox="0 0 804.621 521.076">
  <g id="undraw_Code_review_re_woeb" transform="translate(0 0)">
    <circle id="Ellipse_31" data-name="Ellipse 31" cx="21.327" cy="21.327" r="21.327" transform="translate(109.387 199.988)" fill="#ffb8b8"/>
    <path id="Path_364" data-name="Path 364" d="M67.543,546.039l5.4,9.175L110.9,538.75l-7.97-13.54Z" transform="translate(-8.893 -69.15)" fill="#ffb8b8"/>
    <path id="Path_365" data-name="Path 365" d="M204.293,694.43,214.928,712.5h0a13.36,13.36,0,0,1-4.737,18.291l-.374.22L192.4,701.428Z" transform="translate(-144.025 -221.644)" fill="#2f2e41"/>
    <path id="Path_366" data-name="Path 366" d="M139.6,581.034h10.646l5.064-41.062H139.6Z" transform="translate(-18.38 -71.093)" fill="#ffb8b8"/>
    <path id="Path_367" data-name="Path 367" d="M273.162,733.215h20.966a13.36,13.36,0,0,1,13.361,13.361v.434H273.163Z" transform="translate(-154.657 -226.75)" fill="#2f2e41"/>
    <path id="Path_368" data-name="Path 368" d="M224.852,689.75a3.9,3.9,0,0,1-3.147-1.592l-10.267-13.944a3.907,3.907,0,0,1,.976-5.566L258.1,638.133l-27.567-72.484,58.95,4.865L291.47,632.8a31.3,31.3,0,0,1-15.67,28.155l-49,28.268a3.9,3.9,0,0,1-1.952.525Z" transform="translate(-146.431 -204.688)" fill="#2f2e41"/>
    <path id="Path_369" data-name="Path 369" d="M275.74,717.631a3.907,3.907,0,0,1-3.9-3.768l-2.16-60.681,26.752-1.409-2.13,61.117a3.9,3.9,0,0,1-3.647,3.763l-14.651.971C275.918,717.629,275.829,717.631,275.74,717.631Z" transform="translate(-154.199 -216.027)" fill="#2f2e41"/>
    <path id="Path_370" data-name="Path 370" d="M298.607,565.469c-6.806,0-30.58-7.656-38.833-10.384-1.235.988-8.018,6.06-15.935,5.133-4.885-.573-9.186-3.339-12.783-8.22-7.943-10.78,1.867-57.008,11.5-93.89a29.756,29.756,0,0,1,35.193-21.6h0A30.02,30.02,0,0,1,300.4,458.54c1.813,7.379.253,16.059-.885,22.4a30.441,30.441,0,0,0-.814,6.491c.559,4.471,3.663,74.583,1.667,77.577C300.153,565.325,299.538,565.469,298.607,565.469Z" transform="translate(-148.731 -187.592)" fill="#6c63ff"/>
    <path id="Path_371" data-name="Path 371" d="M277.77,570.224a9.328,9.328,0,0,0,.818-14.28l.421-84.961L259,474.315l5.878,82.467a9.379,9.379,0,0,0,12.894,13.443Z" transform="translate(-152.793 -192.224)" fill="#ffb8b8"/>
    <path id="Path_372" data-name="Path 372" d="M282.005,522.056H260.451a3.919,3.919,0,0,1-3.908-3.872l-.529-58.432a15.285,15.285,0,1,1,30.57.037l-.672,58.4A3.921,3.921,0,0,1,282.005,522.056Z" transform="translate(-152.4 -188.735)" fill="#6c63ff"/>
    <path id="Path_373" data-name="Path 373" d="M277.787,421.65a21.639,21.639,0,0,1-20.669-17.317,24.9,24.9,0,0,1,.8-11.3,30.352,30.352,0,0,1,41.624-19.063c2.612,1.182,5.185,2.88,6.381,5.486s.447,6.248-2.169,7.421c-1.71.766-3.856.39-5.373,1.49-2.179,1.58-1.618,4.942-.645,7.451s2.073,5.546.442,7.687c-1.52,1.995-4.558,1.933-6.951,1.182s-4.755-2.008-7.249-1.753c-3.639.373-6.254,3.992-6.738,7.618s.655,7.25,1.78,10.73Z" transform="translate(-152.504 -179.096)" fill="#2f2e41"/>
    <path id="Path_374" data-name="Path 374" d="M361.589,749.779H137.557a.868.868,0,1,1,0-1.737H361.589a.868.868,0,1,1,0,1.737Z" transform="translate(-136.689 -228.702)" fill="#ccc"/>
    <path id="Path_375" data-name="Path 375" d="M960.264,528.715H403.8a14.344,14.344,0,0,1-14.328-14.328V171.26a10.509,10.509,0,0,1,10.5-10.5H963.914a10.69,10.69,0,0,1,10.678,10.678V514.387A14.344,14.344,0,0,1,960.264,528.715Z" transform="translate(-169.971 -151.38)" fill="#f2f2f2"/>
    <path id="Path_376" data-name="Path 376" d="M945.366,514.958H426.756c-7.6,0-13.787-5.792-13.787-12.911v-298.8c0-5.28,4.583-9.575,10.217-9.575H948.77c5.727,0,10.386,4.366,10.386,9.733V502.048C959.155,509.166,952.972,514.958,945.366,514.958Z" transform="translate(-173.064 -155.713)" fill="#fff"/>
    <path id="Path_377" data-name="Path 377" d="M974.361,171.623H389.241v-7.294a14.392,14.392,0,0,1,14.38-14.371H959.982a14.392,14.392,0,0,1,14.38,14.371Z" transform="translate(-169.941 -149.958)" fill="#3f3d56"/>
    <circle id="Ellipse_32" data-name="Ellipse 32" cx="3.719" cy="3.719" r="3.719" transform="translate(241.714 7.135)" fill="#fff"/>
    <circle id="Ellipse_33" data-name="Ellipse 33" cx="3.719" cy="3.719" r="3.719" transform="translate(255.832 7.135)" fill="#fff"/>
    <circle id="Ellipse_34" data-name="Ellipse 34" cx="3.719" cy="3.719" r="3.719" transform="translate(269.95 7.135)" fill="#fff"/>
    <path id="Path_378" data-name="Path 378" d="M697.056,267.183H595.627a5.7,5.7,0,0,1,0-11.4H697.056a5.7,5.7,0,1,1,0,11.4Z" transform="translate(-196.363 -163.89)" fill="#ccc"/>
    <path id="Path_379" data-name="Path 379" d="M842.2,267.183H740.773a5.7,5.7,0,1,1,0-11.4H842.2a5.7,5.7,0,1,1,0,11.4Z" transform="translate(-215.473 -163.89)" fill="#ccc"/>
    <path id="Path_380" data-name="Path 380" d="M830.827,292.065H654.377a5.7,5.7,0,0,1,0-11.4H830.827a5.7,5.7,0,1,1,0,11.4Z" transform="translate(-204.098 -167.166)" fill="#ccc"/>
    <path id="Path_381" data-name="Path 381" d="M697.056,241.955H595.627a5.7,5.7,0,0,1,0-11.4H697.056a5.7,5.7,0,1,1,0,11.4Z" transform="translate(-196.363 -160.569)" fill="#ccc"/>
    <path id="Path_382" data-name="Path 382" d="M772.346,242.3H743.537a5.7,5.7,0,1,1,0-11.4h28.809a5.7,5.7,0,1,1,0,11.4Z" transform="translate(-215.837 -160.614)" fill="#ccc"/>
    <path id="Path_383" data-name="Path 383" d="M624.436,292.065H595.627a5.7,5.7,0,0,1,0-11.4h28.808a5.7,5.7,0,1,1,0,11.4Z" transform="translate(-196.363 -167.166)" fill="#ccc"/>
    <path id="Path_384" data-name="Path 384" d="M697.056,500.183H595.627a5.7,5.7,0,0,1,0-11.4H697.056a5.7,5.7,0,1,1,0,11.4Z" transform="translate(-196.363 -194.567)" fill="#ccc"/>
    <path id="Path_385" data-name="Path 385" d="M842.2,500.183H740.773a5.7,5.7,0,1,1,0-11.4H842.2a5.7,5.7,0,1,1,0,11.4Z" transform="translate(-215.473 -194.567)" fill="#ccc"/>
    <path id="Path_386" data-name="Path 386" d="M830.827,525.065H654.377a5.7,5.7,0,0,1,0-11.4H830.827a5.7,5.7,0,0,1,0,11.4Z" transform="translate(-204.098 -197.843)" fill="#ccc"/>
    <path id="Path_387" data-name="Path 387" d="M697.056,474.955H595.627a5.7,5.7,0,0,1,0-11.4H697.056a5.7,5.7,0,1,1,0,11.4Z" transform="translate(-196.363 -191.246)" fill="#ccc"/>
    <path id="Path_388" data-name="Path 388" d="M772.346,475.3H743.537a5.7,5.7,0,1,1,0-11.4h28.809a5.7,5.7,0,1,1,0,11.4Z" transform="translate(-215.837 -191.291)" fill="#ccc"/>
    <path id="Path_389" data-name="Path 389" d="M624.436,525.065H595.627a5.7,5.7,0,0,1,0-11.4h28.808a5.7,5.7,0,0,1,0,11.4Z" transform="translate(-196.363 -197.843)" fill="#ccc"/>
    <path id="Path_390" data-name="Path 390" d="M675.782,417.587a8.16,8.16,0,0,1-5.751-2.353L631.9,377.583a7.947,7.947,0,0,1,0-11.309l37.973-37.5a8.424,8.424,0,0,1,11.847.037h0a8.413,8.413,0,0,1,0,11.885l-28.218,28.218a4.7,4.7,0,0,0,0,6.64L681.57,403.62a8.178,8.178,0,0,1-5.789,13.967Z" transform="translate(-201.579 -173.183)" fill="#6c63ff"/>
    <path id="Path_391" data-name="Path 391" d="M751.485,417.587A8.178,8.178,0,0,1,745.7,403.62l28.064-28.065a4.7,4.7,0,0,0,0-6.64L745.543,340.7a8.4,8.4,0,0,1,0-11.885h0a8.424,8.424,0,0,1,11.847-.037l37.974,37.5a7.947,7.947,0,0,1,0,11.309l-38.128,37.651A8.162,8.162,0,0,1,751.485,417.587Z" transform="translate(-216.528 -173.183)" fill="#6c63ff"/>
  </g>
</svg>
